<?xml version="1.0" encoding="UTF-8"?><svg xmlns="http://www.w3.org/2000/svg" xmlns:xlink="http://www.w3.org/1999/xlink" fill-opacity="1" color-rendering="auto" color-interpolation="auto" text-rendering="auto" stroke="black" stroke-linecap="square" width="419" stroke-miterlimit="10" shape-rendering="auto" stroke-opacity="1" fill="black" stroke-dasharray="none" font-weight="normal" stroke-width="1" height="383" font-family="'Dialog'" font-style="normal" stroke-linejoin="miter" font-size="12px" stroke-dashoffset="0" image-rendering="auto">
  <!--Generated by ySVG 2.5-->
  <defs id="genericDefs"/>
  <g>
    <defs id="defs1">
      <clipPath clipPathUnits="userSpaceOnUse" id="clipPath1">
        <path d="M0 0 L419 0 L419 383 L0 383 L0 0 Z"/>
      </clipPath>
      <clipPath clipPathUnits="userSpaceOnUse" id="clipPath2">
        <path d="M5 -15 L424 -15 L424 368 L5 368 L5 -15 Z"/>
      </clipPath>
      <clipPath clipPathUnits="userSpaceOnUse" id="clipPath3">
        <path d="M3 -17 L422 -17 L422 366 L3 366 L3 -17 Z"/>
      </clipPath>
    </defs>
    <g fill="white" text-rendering="geometricPrecision" shape-rendering="geometricPrecision" transform="translate(-5,15)" stroke="white">
      <rect x="5" width="419" height="383" y="-15" clip-path="url(#clipPath2)" stroke="none"/>
    </g>
    <g fill="rgb(179,166,145)" text-rendering="geometricPrecision" shape-rendering="geometricPrecision" transform="matrix(1,0,0,1,-5,15) translate(2,2)" stroke="rgb(179,166,145)">
      <rect x="119.4238" width="57.3535" height="30" y="0" clip-path="url(#clipPath3)" stroke="none"/>
    </g>
    <g fill="white" text-rendering="geometricPrecision" shape-rendering="geometricPrecision" transform="matrix(1,0,0,1,-5,15)" stroke="white">
      <rect x="119.4238" width="57.3535" height="30" y="0" clip-path="url(#clipPath2)" stroke="none"/>
    </g>
    <g text-rendering="geometricPrecision" stroke-miterlimit="1.45" shape-rendering="geometricPrecision" transform="matrix(1,0,0,1,-5,15)" stroke-linecap="butt">
      <rect fill="none" x="119.4238" width="57.3535" height="30" y="0" clip-path="url(#clipPath2)"/>
      <text x="125.46" xml:space="preserve" y="19.5352" clip-path="url(#clipPath2)" font-family="sans-serif" stroke="none">Hessian</text>
    </g>
    <g fill="rgb(179,166,145)" text-rendering="geometricPrecision" shape-rendering="geometricPrecision" transform="matrix(1,0,0,1,-5,15) translate(2,2)" stroke="rgb(179,166,145)">
      <rect x="105.0889" width="86.0234" height="30" y="64.7012" clip-path="url(#clipPath3)" stroke="none"/>
    </g>
    <g fill="rgb(255,204,0)" text-rendering="geometricPrecision" shape-rendering="geometricPrecision" transform="matrix(1,0,0,1,-5,15)" stroke="rgb(255,204,0)">
      <rect x="105.0889" width="86.0234" height="30" y="64.7012" clip-path="url(#clipPath2)" stroke="none"/>
    </g>
    <g text-rendering="geometricPrecision" stroke-miterlimit="1.45" shape-rendering="geometricPrecision" transform="matrix(1,0,0,1,-5,15)" stroke-linecap="butt">
      <rect fill="none" x="105.0889" width="86.0234" height="30" y="64.7012" clip-path="url(#clipPath2)"/>
      <text x="108.5732" xml:space="preserve" y="77.1699" clip-path="url(#clipPath2)" font-family="sans-serif" stroke="none">Normal mode</text>
      <text x="125.0293" xml:space="preserve" y="91.3027" clip-path="url(#clipPath2)" font-family="sans-serif" stroke="none">analysis</text>
    </g>
    <g fill="rgb(179,166,145)" text-rendering="geometricPrecision" shape-rendering="geometricPrecision" transform="matrix(1,0,0,1,-5,15) translate(2,2)" stroke="rgb(179,166,145)">
      <rect x="63.338" width="108.0605" height="30" y="320.1035" clip-path="url(#clipPath3)" stroke="none"/>
    </g>
    <g fill="rgb(153,204,255)" text-rendering="geometricPrecision" shape-rendering="geometricPrecision" transform="matrix(1,0,0,1,-5,15)" stroke="rgb(153,204,255)">
      <rect x="63.338" width="108.0605" height="30" y="320.1035" clip-path="url(#clipPath2)" stroke="none"/>
    </g>
    <g text-rendering="geometricPrecision" stroke-miterlimit="1.45" shape-rendering="geometricPrecision" transform="matrix(1,0,0,1,-5,15)" stroke-linecap="butt">
      <rect fill="none" x="63.338" width="108.0605" height="30" y="320.1035" clip-path="url(#clipPath2)"/>
      <text x="66.6847" xml:space="preserve" y="339.6387" clip-path="url(#clipPath2)" font-family="sans-serif" stroke="none">Local frequencies</text>
    </g>
    <g fill="rgb(179,166,145)" text-rendering="geometricPrecision" shape-rendering="geometricPrecision" transform="matrix(1,0,0,1,-5,15) translate(2,2)" stroke="rgb(179,166,145)">
      <rect x="81.0186" width="72.6992" height="30" y="257.1035" clip-path="url(#clipPath3)" stroke="none"/>
    </g>
    <g fill="rgb(153,204,255)" text-rendering="geometricPrecision" shape-rendering="geometricPrecision" transform="matrix(1,0,0,1,-5,15)" stroke="rgb(153,204,255)">
      <rect x="81.0186" width="72.6992" height="30" y="257.1035" clip-path="url(#clipPath2)" stroke="none"/>
    </g>
    <g text-rendering="geometricPrecision" stroke-miterlimit="1.45" shape-rendering="geometricPrecision" transform="matrix(1,0,0,1,-5,15)" stroke-linecap="butt">
      <rect fill="none" x="81.0186" width="72.6992" height="30" y="257.1035" clip-path="url(#clipPath2)"/>
      <text x="85.7013" xml:space="preserve" y="269.5723" clip-path="url(#clipPath2)" font-family="sans-serif" stroke="none">Local force</text>
      <text x="89.2433" xml:space="preserve" y="283.7051" clip-path="url(#clipPath2)" font-family="sans-serif" stroke="none">constants</text>
    </g>
    <g fill="rgb(179,166,145)" text-rendering="geometricPrecision" shape-rendering="geometricPrecision" transform="matrix(1,0,0,1,-5,15) translate(2,2)" stroke="rgb(179,166,145)">
      <rect x="20.0004" width="64.0215" height="30" y="0" clip-path="url(#clipPath3)" stroke="none"/>
    </g>
    <g fill="white" text-rendering="geometricPrecision" shape-rendering="geometricPrecision" transform="matrix(1,0,0,1,-5,15)" stroke="white">
      <rect x="20.0004" width="64.0215" height="30" y="0" clip-path="url(#clipPath2)" stroke="none"/>
    </g>
    <g text-rendering="geometricPrecision" stroke-miterlimit="1.45" shape-rendering="geometricPrecision" transform="matrix(1,0,0,1,-5,15)" stroke-linecap="butt">
      <rect fill="none" x="20.0004" width="64.0215" height="30" y="0" clip-path="url(#clipPath2)"/>
      <text x="25.7113" xml:space="preserve" y="19.5352" clip-path="url(#clipPath2)" font-family="sans-serif" stroke="none">Elements</text>
    </g>
    <g fill="rgb(179,166,145)" text-rendering="geometricPrecision" shape-rendering="geometricPrecision" transform="matrix(1,0,0,1,-5,15) translate(2,2)" stroke="rgb(179,166,145)">
      <rect x="212.1792" width="78.7051" height="30" y="0" clip-path="url(#clipPath3)" stroke="none"/>
    </g>
    <g fill="white" text-rendering="geometricPrecision" shape-rendering="geometricPrecision" transform="matrix(1,0,0,1,-5,15)" stroke="white">
      <rect x="212.1792" width="78.7051" height="30" y="0" clip-path="url(#clipPath2)" stroke="none"/>
    </g>
    <g text-rendering="geometricPrecision" stroke-miterlimit="1.45" shape-rendering="geometricPrecision" transform="matrix(1,0,0,1,-5,15)" stroke-linecap="butt">
      <rect fill="none" x="212.1792" width="78.7051" height="30" y="0" clip-path="url(#clipPath2)"/>
      <text x="216.3609" xml:space="preserve" y="19.5352" clip-path="url(#clipPath2)" font-family="sans-serif" stroke="none">Coordinates</text>
    </g>
    <g fill="rgb(179,166,145)" text-rendering="geometricPrecision" shape-rendering="geometricPrecision" transform="matrix(1,0,0,1,-5,15) translate(2,2)" stroke="rgb(179,166,145)">
      <rect x="286.7083" width="119.3984" height="30" y="64.7012" clip-path="url(#clipPath3)" stroke="none"/>
    </g>
    <g fill="white" text-rendering="geometricPrecision" shape-rendering="geometricPrecision" transform="matrix(1,0,0,1,-5,15)" stroke="white">
      <rect x="286.7083" width="119.3984" height="30" y="64.7012" clip-path="url(#clipPath2)" stroke="none"/>
    </g>
    <g text-rendering="geometricPrecision" stroke-miterlimit="1.45" shape-rendering="geometricPrecision" transform="matrix(1,0,0,1,-5,15)" stroke-linecap="butt">
      <rect fill="none" x="286.7083" width="119.3984" height="30" y="64.7012" clip-path="url(#clipPath2)"/>
      <text x="288.1507" xml:space="preserve" y="84.2363" clip-path="url(#clipPath2)" font-family="sans-serif" stroke="none">Internal coordinates</text>
    </g>
    <g fill="rgb(179,166,145)" text-rendering="geometricPrecision" shape-rendering="geometricPrecision" transform="matrix(1,0,0,1,-5,15) translate(2,2)" stroke="rgb(179,166,145)">
      <rect x="302.9048" width="58.0039" height="30" y="129.4023" clip-path="url(#clipPath3)" stroke="none"/>
    </g>
    <g fill="white" text-rendering="geometricPrecision" shape-rendering="geometricPrecision" transform="matrix(1,0,0,1,-5,15)" stroke="white">
      <rect x="302.9048" width="58.0039" height="30" y="129.4023" clip-path="url(#clipPath2)" stroke="none"/>
    </g>
    <g text-rendering="geometricPrecision" stroke-miterlimit="1.45" shape-rendering="geometricPrecision" transform="matrix(1,0,0,1,-5,15)" stroke-linecap="butt">
      <rect fill="none" x="302.9048" width="58.0039" height="30" y="129.4023" clip-path="url(#clipPath2)"/>
      <text x="307.5288" xml:space="preserve" y="148.9375" clip-path="url(#clipPath2)" font-family="sans-serif" stroke="none">B matrix</text>
    </g>
    <g fill="rgb(179,166,145)" text-rendering="geometricPrecision" shape-rendering="geometricPrecision" transform="matrix(1,0,0,1,-5,15) translate(2,2)" stroke="rgb(179,166,145)">
      <rect x="51.5058" width="95.375" height="30" y="129.4023" clip-path="url(#clipPath3)" stroke="none"/>
    </g>
    <g fill="white" text-rendering="geometricPrecision" shape-rendering="geometricPrecision" transform="matrix(1,0,0,1,-5,15)" stroke="white">
      <rect x="51.5058" width="95.375" height="30" y="129.4023" clip-path="url(#clipPath2)" stroke="none"/>
    </g>
    <g text-rendering="geometricPrecision" stroke-miterlimit="1.45" shape-rendering="geometricPrecision" transform="matrix(1,0,0,1,-5,15)" stroke-linecap="butt">
      <rect fill="none" x="51.5058" width="95.375" height="30" y="129.4023" clip-path="url(#clipPath2)"/>
      <text x="59.6659" xml:space="preserve" y="141.8711" clip-path="url(#clipPath2)" font-family="sans-serif" stroke="none">Normal mode</text>
      <text x="54.4071" xml:space="preserve" y="156.0039" clip-path="url(#clipPath2)" font-family="sans-serif" stroke="none">force constants</text>
    </g>
    <g fill="rgb(179,166,145)" text-rendering="geometricPrecision" shape-rendering="geometricPrecision" transform="matrix(1,0,0,1,-5,15) translate(2,2)" stroke="rgb(179,166,145)">
      <rect x="201.5484" width="93.377" height="30" y="192.4023" clip-path="url(#clipPath3)" stroke="none"/>
    </g>
    <g fill="white" text-rendering="geometricPrecision" shape-rendering="geometricPrecision" transform="matrix(1,0,0,1,-5,15)" stroke="white">
      <rect x="201.5484" width="93.377" height="30" y="192.4023" clip-path="url(#clipPath2)" stroke="none"/>
    </g>
    <g text-rendering="geometricPrecision" stroke-miterlimit="1.45" shape-rendering="geometricPrecision" transform="matrix(1,0,0,1,-5,15)" stroke-linecap="butt">
      <rect fill="none" x="201.5484" width="93.377" height="30" y="192.4023" clip-path="url(#clipPath2)"/>
      <text x="204.608" xml:space="preserve" y="211.9375" clip-path="url(#clipPath2)" font-family="sans-serif" stroke="none">Internal modes</text>
    </g>
    <g fill="rgb(179,166,145)" text-rendering="geometricPrecision" shape-rendering="geometricPrecision" transform="matrix(1,0,0,1,-5,15) translate(2,2)" stroke="rgb(179,166,145)">
      <rect x="178.8811" width="92.0234" height="30" y="129.4023" clip-path="url(#clipPath3)" stroke="none"/>
    </g>
    <g fill="white" text-rendering="geometricPrecision" shape-rendering="geometricPrecision" transform="matrix(1,0,0,1,-5,15)" stroke="white">
      <rect x="178.8811" width="92.0234" height="30" y="129.4023" clip-path="url(#clipPath2)" stroke="none"/>
    </g>
    <g text-rendering="geometricPrecision" stroke-miterlimit="1.45" shape-rendering="geometricPrecision" transform="matrix(1,0,0,1,-5,15)" stroke-linecap="butt">
      <rect fill="none" x="178.8811" width="92.0234" height="30" y="129.4023" clip-path="url(#clipPath2)"/>
      <text x="182.3069" xml:space="preserve" y="148.9375" clip-path="url(#clipPath2)" font-family="sans-serif" stroke="none">Normal modes</text>
      <path fill="none" d="M148.1006 30 L148.1006 56.6673" clip-path="url(#clipPath2)"/>
      <path d="M148.1006 64.6673 L153.1006 52.6673 L148.1006 55.6673 L143.1006 52.6673 Z" clip-path="url(#clipPath2)" stroke="none"/>
      <path fill="none" d="M117.3683 287.1035 L117.3683 312.0713" clip-path="url(#clipPath2)"/>
      <path d="M117.3683 320.0713 L122.3683 308.0713 L117.3683 311.0713 L112.3683 308.0713 Z" clip-path="url(#clipPath2)" stroke="none"/>
      <path fill="none" d="M68.0165 30 L68.0165 47.5 L119.4261 47.5 L119.4261 56.6676" clip-path="url(#clipPath2)"/>
      <path d="M119.4261 64.6676 L124.4261 52.6676 L119.4261 55.6676 L114.4261 52.6676 Z" clip-path="url(#clipPath2)" stroke="none"/>
      <path fill="none" d="M36.0057 30 L36.0056 304.6035 L81.3481 304.6035 L81.3481 312.0732" clip-path="url(#clipPath2)"/>
      <path d="M81.3481 320.0732 L86.3481 308.0732 L81.3481 311.0732 L76.3481 308.0732 Z" clip-path="url(#clipPath2)" stroke="none"/>
      <path fill="none" d="M231.8555 30 L231.8555 47.5 L176.7751 47.5 L176.7751 56.6676" clip-path="url(#clipPath2)"/>
      <path d="M176.7751 64.6676 L181.7751 52.6676 L176.7751 55.6676 L171.7751 52.6676 Z" clip-path="url(#clipPath2)" stroke="none"/>
      <path fill="none" d="M346.4075 94.7012 L346.4077 121.3685" clip-path="url(#clipPath2)"/>
      <path d="M346.4077 129.3685 L351.4077 117.3684 L346.4077 120.3685 L341.4077 117.3685 Z" clip-path="url(#clipPath2)" stroke="none"/>
      <path fill="none" d="M271.208 30 L271.2079 112.2012 L317.4058 112.2012 L317.4058 121.3687" clip-path="url(#clipPath2)"/>
      <path d="M317.4058 129.3687 L322.4058 117.3687 L317.4058 120.3687 L312.4058 117.3687 Z" clip-path="url(#clipPath2)" stroke="none"/>
      <path fill="none" d="M346.4077 159.4023 L346.4075 304.6035 L153.3884 304.6035 L153.3884 312.0732" clip-path="url(#clipPath2)"/>
      <path d="M153.3884 320.0732 L158.3884 308.0732 L153.3884 311.0732 L148.3884 308.0732 Z" clip-path="url(#clipPath2)" stroke="none"/>
      <path fill="none" d="M126.5947 94.7012 L126.5947 112.2012 L99.1933 112.2012 L99.1933 121.3687" clip-path="url(#clipPath2)"/>
      <path d="M99.1933 129.3687 L104.1933 117.3687 L99.1933 120.3687 L94.1933 117.3687 Z" clip-path="url(#clipPath2)" stroke="none"/>
      <path fill="none" d="M99.1933 159.4023 L99.1934 249.0558" clip-path="url(#clipPath2)"/>
      <path d="M99.1935 257.0558 L104.1934 245.0558 L99.1934 248.0558 L94.1934 245.0558 Z" clip-path="url(#clipPath2)" stroke="none"/>
      <path fill="none" d="M317.4058 159.4023 L317.4058 176.9023 L271.5811 176.9023 L271.5811 184.3721" clip-path="url(#clipPath2)"/>
      <path d="M271.5811 192.3721 L276.5811 180.3721 L271.5811 183.3721 L266.5811 180.3721 Z" clip-path="url(#clipPath2)" stroke="none"/>
      <path fill="none" d="M248.2369 222.4023 L248.2369 239.9023 L135.5431 239.9023 L135.5431 249.0699" clip-path="url(#clipPath2)"/>
      <path d="M135.5431 257.0699 L140.5431 245.0699 L135.5431 248.0699 L130.5431 245.0699 Z" clip-path="url(#clipPath2)" stroke="none"/>
      <path fill="none" d="M169.6065 94.7012 L169.6065 112.2012 L224.8929 112.2012 L224.8929 121.3687" clip-path="url(#clipPath2)"/>
      <path d="M224.8929 129.3687 L229.8929 117.3687 L224.8929 120.3687 L219.8929 117.3687 Z" clip-path="url(#clipPath2)" stroke="none"/>
      <path fill="none" d="M224.8929 159.4023 L224.8927 184.3701" clip-path="url(#clipPath2)"/>
      <path d="M224.8927 192.3701 L229.8927 180.3701 L224.8927 183.3701 L219.8927 180.3701 Z" clip-path="url(#clipPath2)" stroke="none"/>
    </g>
  </g>
</svg>
