<?xml version="1.0" encoding="UTF-8" standalone="no"?>
<!DOCTYPE svg PUBLIC "-//W3C//DTD SVG 1.1//EN" "http://www.w3.org/Graphics/SVG/1.1/DTD/svg11.dtd">
<svg width="100%" height="100%" viewBox="0 0 1039 259" version="1.1" xmlns="http://www.w3.org/2000/svg" xmlns:xlink="http://www.w3.org/1999/xlink" xml:space="preserve" xmlns:serif="http://www.serif.com/" style="fill-rule:evenodd;clip-rule:evenodd;stroke-linejoin:round;stroke-miterlimit:2;">
    <g transform="matrix(1,0,0,1,-3442.83,-1497.91)">
        <g transform="matrix(1,0,0,1,-0.966076,-0.0406276)">
            <g transform="matrix(1,0,0,1,2578.52,-934.172)">
                <g transform="matrix(219.001,0,0,219.001,851.268,2609.64)">
                    <path d="M0.064,-0L0.223,-0.811L0.481,-0.225L0.75,-0.811L0.892,-0L0.775,-0L0.703,-0.455L0.479,0.035L0.263,-0.456L0.182,-0L0.064,-0Z" style="fill:white;fill-rule:nonzero;"/>
                </g>
                <g transform="matrix(219.001,0,0,219.001,1061.82,2609.64)">
                    <path d="M0.053,-0.38C0.053,-0.486 0.092,-0.578 0.169,-0.654C0.247,-0.73 0.34,-0.768 0.449,-0.768C0.556,-0.768 0.648,-0.73 0.725,-0.653C0.802,-0.576 0.841,-0.484 0.841,-0.376C0.841,-0.268 0.802,-0.176 0.725,-0.1C0.647,-0.024 0.553,0.014 0.443,0.014C0.346,0.014 0.258,-0.02 0.181,-0.087C0.095,-0.162 0.053,-0.26 0.053,-0.38ZM0.167,-0.379C0.167,-0.296 0.195,-0.227 0.251,-0.173C0.307,-0.12 0.371,-0.093 0.444,-0.093C0.523,-0.093 0.59,-0.12 0.645,-0.175C0.699,-0.23 0.726,-0.298 0.726,-0.377C0.726,-0.457 0.699,-0.525 0.646,-0.579C0.592,-0.634 0.526,-0.661 0.447,-0.661C0.369,-0.661 0.303,-0.634 0.249,-0.579C0.194,-0.525 0.167,-0.458 0.167,-0.379Z" style="fill:white;fill-rule:nonzero;"/>
                </g>
                <g transform="matrix(219.001,0,0,219.001,1257.51,2609.64)">
                    <path d="M0.346,-0.321L0.579,-0L0.44,-0L0.225,-0.309L0.204,-0.309L0.204,-0L0.09,-0L0.09,-0.754L0.224,-0.754C0.323,-0.754 0.395,-0.735 0.439,-0.698C0.488,-0.656 0.513,-0.601 0.513,-0.533C0.513,-0.479 0.497,-0.433 0.467,-0.395C0.436,-0.357 0.396,-0.332 0.346,-0.321ZM0.204,-0.408L0.24,-0.408C0.348,-0.408 0.402,-0.449 0.402,-0.531C0.402,-0.608 0.349,-0.647 0.245,-0.647L0.204,-0.647L0.204,-0.408Z" style="fill:white;fill-rule:nonzero;"/>
                </g>
                <g transform="matrix(219.001,0,0,219.001,1389.36,2609.64)">
                    <path d="M0.467,-0.647L0.204,-0.647L0.204,-0.466L0.458,-0.466L0.458,-0.359L0.204,-0.359L0.204,-0L0.09,-0L0.09,-0.754L0.467,-0.754L0.467,-0.647Z" style="fill:white;fill-rule:nonzero;"/>
                </g>
                <g transform="matrix(219.001,0,0,219.001,1500.68,2609.64)">
                    <path d="M0.506,-0.647L0.204,-0.647L0.204,-0.466L0.498,-0.466L0.498,-0.359L0.204,-0.359L0.204,-0.107L0.506,-0.107L0.506,-0L0.09,-0L0.09,-0.754L0.506,-0.754L0.506,-0.647Z" style="fill:white;fill-rule:nonzero;"/>
                </g>
                <g transform="matrix(219.001,0,0,219.001,1624.51,2609.64)">
                    <path d="M0.204,-0.754L0.204,-0.3C0.204,-0.235 0.215,-0.188 0.236,-0.158C0.267,-0.114 0.312,-0.093 0.369,-0.093C0.427,-0.093 0.471,-0.114 0.503,-0.158C0.524,-0.187 0.535,-0.234 0.535,-0.3L0.535,-0.754L0.648,-0.754L0.648,-0.269C0.648,-0.189 0.624,-0.124 0.574,-0.072C0.519,-0.015 0.45,0.014 0.369,0.014C0.288,0.014 0.22,-0.015 0.165,-0.072C0.115,-0.124 0.09,-0.189 0.09,-0.269L0.09,-0.754L0.204,-0.754Z" style="fill:white;fill-rule:nonzero;"/>
                </g>
                <g transform="matrix(219.001,0,0,219.001,1786.3,2609.64)">
                    <path d="M0.517,-0.642L0.424,-0.587C0.407,-0.617 0.391,-0.636 0.375,-0.646C0.359,-0.656 0.338,-0.661 0.312,-0.661C0.28,-0.661 0.254,-0.652 0.233,-0.634C0.213,-0.617 0.202,-0.595 0.202,-0.568C0.202,-0.531 0.229,-0.501 0.284,-0.479L0.359,-0.448C0.421,-0.424 0.465,-0.393 0.494,-0.358C0.522,-0.322 0.536,-0.278 0.536,-0.227C0.536,-0.157 0.513,-0.1 0.467,-0.055C0.42,-0.009 0.362,0.014 0.293,0.014C0.228,0.014 0.174,-0.006 0.131,-0.044C0.089,-0.083 0.063,-0.138 0.053,-0.208L0.168,-0.233C0.173,-0.189 0.182,-0.159 0.195,-0.142C0.219,-0.109 0.253,-0.093 0.298,-0.093C0.333,-0.093 0.363,-0.105 0.386,-0.128C0.41,-0.152 0.421,-0.182 0.421,-0.219C0.421,-0.233 0.419,-0.247 0.415,-0.259C0.411,-0.271 0.405,-0.282 0.396,-0.293C0.388,-0.303 0.376,-0.313 0.363,-0.322C0.349,-0.33 0.333,-0.339 0.314,-0.347L0.241,-0.377C0.138,-0.421 0.086,-0.485 0.086,-0.569C0.086,-0.625 0.108,-0.673 0.151,-0.711C0.195,-0.749 0.249,-0.769 0.313,-0.769C0.4,-0.769 0.468,-0.726 0.517,-0.642Z" style="fill:white;fill-rule:nonzero;"/>
                </g>
                <g transform="matrix(0.741747,0,0,0.741747,491.602,1859.71)">
                    <path d="M907.682,878.084C911.849,869.647 922.284,863.659 934.483,863.659C950.345,863.659 963.223,873.782 963.223,886.251C963.223,898.719 950.345,908.842 934.483,908.842C918.621,908.842 905.743,898.719 905.743,886.251C905.743,884.819 905.913,883.419 906.237,882.063C904.539,881.512 902.644,881.19 900.662,881.19C898.68,881.19 896.786,881.512 895.087,882.063C895.412,883.419 895.581,884.819 895.581,886.251C895.581,898.719 882.703,908.842 866.841,908.842C850.979,908.842 838.102,898.719 838.102,886.251C838.102,873.782 850.979,863.659 866.841,863.659C879.041,863.659 889.475,869.647 893.643,878.084C895.611,876.855 898.038,876.13 900.662,876.13C903.287,876.13 905.714,876.855 907.682,878.084Z" style="fill:white;"/>
                </g>
            </g>
        </g>
        <g transform="matrix(1,0,0,1,-0.966076,-0.0406276)">
            <g transform="matrix(0.982245,0,0,0.982245,3430.26,1745.66)">
                <g transform="matrix(50.9038,0,0,50.9038,97.5923,0)">
                    <path d="M0.172,-0.528L0.176,-0.473C0.213,-0.516 0.264,-0.538 0.328,-0.538C0.399,-0.538 0.447,-0.511 0.473,-0.457C0.512,-0.511 0.566,-0.538 0.635,-0.538C0.694,-0.538 0.737,-0.522 0.765,-0.49C0.794,-0.458 0.808,-0.41 0.809,-0.347L0.809,-0L0.69,-0L0.69,-0.344C0.69,-0.377 0.683,-0.402 0.668,-0.417C0.654,-0.433 0.63,-0.441 0.596,-0.441C0.569,-0.441 0.547,-0.434 0.53,-0.419C0.512,-0.405 0.5,-0.386 0.494,-0.362L0.494,-0L0.375,-0L0.375,-0.348C0.374,-0.41 0.342,-0.441 0.28,-0.441C0.233,-0.441 0.199,-0.422 0.179,-0.383L0.179,-0L0.061,-0L0.061,-0.528L0.172,-0.528Z" style="fill:rgb(0,143,17);fill-rule:nonzero;"/>
                </g>
                <g transform="matrix(50.9038,0,0,50.9038,141.885,0)">
                    <path d="M0.039,-0.269C0.039,-0.321 0.049,-0.367 0.069,-0.409C0.09,-0.45 0.119,-0.482 0.156,-0.505C0.193,-0.527 0.236,-0.538 0.284,-0.538C0.355,-0.538 0.413,-0.515 0.457,-0.469C0.502,-0.423 0.526,-0.362 0.529,-0.287L0.53,-0.259C0.53,-0.207 0.52,-0.16 0.5,-0.119C0.48,-0.078 0.451,-0.046 0.414,-0.024C0.377,-0.001 0.333,0.01 0.285,0.01C0.21,0.01 0.15,-0.015 0.106,-0.065C0.061,-0.114 0.039,-0.181 0.039,-0.263L0.039,-0.269ZM0.157,-0.259C0.157,-0.204 0.168,-0.162 0.191,-0.131C0.213,-0.1 0.245,-0.085 0.285,-0.085C0.325,-0.085 0.356,-0.101 0.378,-0.132C0.4,-0.163 0.412,-0.209 0.412,-0.269C0.412,-0.322 0.4,-0.365 0.377,-0.396C0.354,-0.427 0.323,-0.443 0.284,-0.443C0.245,-0.443 0.214,-0.427 0.191,-0.397C0.169,-0.366 0.157,-0.32 0.157,-0.259Z" style="fill:rgb(0,143,17);fill-rule:nonzero;"/>
                </g>
                <g transform="matrix(50.9038,0,0,50.9038,170.866,0)">
                    <rect x="0.083" y="-0.75" width="0.059" height="0.75" style="fill:rgb(0,143,17);fill-rule:nonzero;"/>
                </g>
                <g transform="matrix(50.9038,0,0,50.9038,182.275,0)">
                    <path d="M0.281,0.01C0.236,0.01 0.195,-0.001 0.159,-0.023C0.123,-0.046 0.094,-0.076 0.074,-0.116C0.054,-0.156 0.044,-0.2 0.044,-0.249L0.044,-0.27C0.044,-0.321 0.054,-0.367 0.073,-0.407C0.093,-0.448 0.121,-0.48 0.156,-0.503C0.191,-0.526 0.229,-0.538 0.27,-0.538C0.334,-0.538 0.385,-0.516 0.423,-0.472C0.46,-0.429 0.479,-0.369 0.479,-0.293L0.479,-0.26L0.102,-0.26L0.102,-0.249C0.102,-0.189 0.119,-0.139 0.154,-0.099C0.188,-0.059 0.231,-0.04 0.283,-0.04C0.314,-0.04 0.342,-0.045 0.366,-0.057C0.39,-0.068 0.412,-0.086 0.431,-0.111L0.468,-0.083C0.425,-0.021 0.362,0.01 0.281,0.01ZM0.27,-0.488C0.226,-0.488 0.189,-0.472 0.159,-0.44C0.129,-0.408 0.111,-0.364 0.104,-0.31L0.421,-0.31L0.421,-0.316C0.419,-0.367 0.405,-0.409 0.377,-0.44C0.35,-0.472 0.314,-0.488 0.27,-0.488Z" style="fill:rgb(0,143,17);fill-rule:nonzero;"/>
                </g>
                <g transform="matrix(50.9038,0,0,50.9038,208.572,0)">
                    <path d="M0.271,-0.04C0.312,-0.04 0.346,-0.051 0.374,-0.074C0.401,-0.097 0.416,-0.127 0.418,-0.163L0.475,-0.163C0.473,-0.131 0.463,-0.101 0.444,-0.075C0.426,-0.048 0.401,-0.028 0.37,-0.013C0.34,0.002 0.307,0.01 0.271,0.01C0.202,0.01 0.147,-0.014 0.107,-0.063C0.066,-0.111 0.046,-0.175 0.046,-0.257L0.046,-0.274C0.046,-0.326 0.055,-0.373 0.073,-0.413C0.091,-0.453 0.118,-0.484 0.152,-0.505C0.186,-0.527 0.225,-0.538 0.271,-0.538C0.329,-0.538 0.377,-0.521 0.414,-0.486C0.452,-0.452 0.472,-0.406 0.475,-0.35L0.418,-0.35C0.416,-0.391 0.401,-0.425 0.374,-0.45C0.347,-0.476 0.312,-0.488 0.271,-0.488C0.218,-0.488 0.177,-0.469 0.148,-0.431C0.119,-0.393 0.104,-0.34 0.104,-0.271L0.104,-0.254C0.104,-0.187 0.119,-0.134 0.148,-0.096C0.177,-0.058 0.218,-0.04 0.271,-0.04Z" style="fill:rgb(0,143,17);fill-rule:nonzero;"/>
                </g>
                <g transform="matrix(50.9038,0,0,50.9038,234.795,0)">
                    <path d="M0.416,-0.067C0.381,-0.016 0.325,0.01 0.248,0.01C0.191,0.01 0.148,-0.007 0.119,-0.039C0.09,-0.072 0.075,-0.12 0.074,-0.185L0.074,-0.528L0.132,-0.528L0.132,-0.192C0.132,-0.091 0.173,-0.041 0.254,-0.041C0.339,-0.041 0.393,-0.076 0.415,-0.146L0.415,-0.528L0.474,-0.528L0.474,-0L0.417,-0L0.416,-0.067Z" style="fill:rgb(0,143,17);fill-rule:nonzero;"/>
                </g>
                <g transform="matrix(50.9038,0,0,50.9038,262.758,0)">
                    <rect x="0.083" y="-0.75" width="0.059" height="0.75" style="fill:rgb(0,143,17);fill-rule:nonzero;"/>
                </g>
                <g transform="matrix(50.9038,0,0,50.9038,274.166,0)">
                    <path d="M0.41,-0C0.404,-0.017 0.4,-0.041 0.398,-0.074C0.378,-0.047 0.352,-0.026 0.32,-0.012C0.288,0.003 0.255,0.01 0.219,0.01C0.168,0.01 0.127,-0.004 0.096,-0.033C0.065,-0.061 0.049,-0.097 0.049,-0.14C0.049,-0.192 0.07,-0.232 0.113,-0.262C0.156,-0.292 0.215,-0.307 0.292,-0.307L0.398,-0.307L0.398,-0.367C0.398,-0.405 0.386,-0.435 0.363,-0.456C0.34,-0.478 0.306,-0.489 0.261,-0.489C0.221,-0.489 0.187,-0.478 0.16,-0.458C0.133,-0.437 0.12,-0.412 0.12,-0.382L0.062,-0.383C0.062,-0.425 0.081,-0.461 0.12,-0.492C0.159,-0.523 0.207,-0.538 0.264,-0.538C0.323,-0.538 0.37,-0.523 0.404,-0.494C0.438,-0.464 0.455,-0.423 0.456,-0.371L0.456,-0.121C0.456,-0.069 0.461,-0.031 0.472,-0.006L0.472,-0L0.41,-0ZM0.226,-0.042C0.265,-0.042 0.3,-0.051 0.331,-0.07C0.362,-0.089 0.384,-0.114 0.398,-0.146L0.398,-0.262L0.293,-0.262C0.235,-0.262 0.19,-0.251 0.157,-0.23C0.124,-0.21 0.107,-0.181 0.107,-0.145C0.107,-0.115 0.118,-0.091 0.14,-0.071C0.162,-0.052 0.191,-0.042 0.226,-0.042Z" style="fill:rgb(0,143,17);fill-rule:nonzero;"/>
                </g>
                <g transform="matrix(50.9038,0,0,50.9038,301.433,0)">
                    <path d="M0.337,-0.42C0.322,-0.423 0.306,-0.424 0.289,-0.424C0.235,-0.424 0.198,-0.403 0.179,-0.361L0.179,-0L0.061,-0L0.061,-0.528L0.174,-0.528L0.177,-0.469C0.205,-0.515 0.245,-0.538 0.296,-0.538C0.313,-0.538 0.327,-0.536 0.338,-0.531L0.337,-0.42Z" style="fill:rgb(0,143,17);fill-rule:nonzero;"/>
                </g>
                <g transform="matrix(50.9038,0,0,50.9038,332.02,0)">
                    <path d="M0.103,-0L0.103,-0.44L0.022,-0.44L0.022,-0.528L0.103,-0.528L0.103,-0.577C0.103,-0.635 0.119,-0.681 0.151,-0.712C0.184,-0.744 0.229,-0.76 0.288,-0.76C0.309,-0.76 0.331,-0.757 0.354,-0.751L0.352,-0.659C0.339,-0.661 0.323,-0.663 0.306,-0.663C0.25,-0.663 0.221,-0.633 0.221,-0.575L0.221,-0.528L0.329,-0.528L0.329,-0.44L0.221,-0.44L0.221,-0L0.103,-0Z" style="fill:rgb(0,143,17);fill-rule:nonzero;"/>
                </g>
                <g transform="matrix(50.9038,0,0,50.9038,350.04,0)">
                    <path d="M0.293,0.01C0.218,0.01 0.157,-0.014 0.111,-0.061C0.064,-0.109 0.041,-0.172 0.041,-0.25L0.041,-0.265C0.041,-0.318 0.051,-0.365 0.071,-0.406C0.091,-0.448 0.12,-0.48 0.157,-0.503C0.194,-0.527 0.235,-0.538 0.28,-0.538C0.352,-0.538 0.407,-0.515 0.447,-0.469C0.486,-0.423 0.505,-0.358 0.505,-0.274L0.505,-0.227L0.16,-0.227C0.164,-0.183 0.178,-0.148 0.204,-0.123C0.229,-0.098 0.262,-0.085 0.3,-0.085C0.355,-0.085 0.399,-0.107 0.433,-0.151L0.497,-0.09C0.476,-0.058 0.448,-0.034 0.412,-0.016C0.377,0.001 0.337,0.01 0.293,0.01ZM0.279,-0.443C0.247,-0.443 0.22,-0.431 0.2,-0.409C0.18,-0.386 0.168,-0.354 0.162,-0.313L0.388,-0.313L0.388,-0.322C0.386,-0.362 0.375,-0.392 0.356,-0.412C0.338,-0.433 0.312,-0.443 0.279,-0.443Z" style="fill:rgb(0,143,17);fill-rule:nonzero;"/>
                </g>
                <g transform="matrix(50.9038,0,0,50.9038,377.358,0)">
                    <path d="M0.41,-0C0.404,-0.017 0.4,-0.041 0.398,-0.074C0.378,-0.047 0.352,-0.026 0.32,-0.012C0.288,0.003 0.255,0.01 0.219,0.01C0.168,0.01 0.127,-0.004 0.096,-0.033C0.065,-0.061 0.049,-0.097 0.049,-0.14C0.049,-0.192 0.07,-0.232 0.113,-0.262C0.156,-0.292 0.215,-0.307 0.292,-0.307L0.398,-0.307L0.398,-0.367C0.398,-0.405 0.386,-0.435 0.363,-0.456C0.34,-0.478 0.306,-0.489 0.261,-0.489C0.221,-0.489 0.187,-0.478 0.16,-0.458C0.133,-0.437 0.12,-0.412 0.12,-0.382L0.062,-0.383C0.062,-0.425 0.081,-0.461 0.12,-0.492C0.159,-0.523 0.207,-0.538 0.264,-0.538C0.323,-0.538 0.37,-0.523 0.404,-0.494C0.438,-0.464 0.455,-0.423 0.456,-0.371L0.456,-0.121C0.456,-0.069 0.461,-0.031 0.472,-0.006L0.472,-0L0.41,-0ZM0.226,-0.042C0.265,-0.042 0.3,-0.051 0.331,-0.07C0.362,-0.089 0.384,-0.114 0.398,-0.146L0.398,-0.262L0.293,-0.262C0.235,-0.262 0.19,-0.251 0.157,-0.23C0.124,-0.21 0.107,-0.181 0.107,-0.145C0.107,-0.115 0.118,-0.091 0.14,-0.071C0.162,-0.052 0.191,-0.042 0.226,-0.042Z" style="fill:rgb(0,143,17);fill-rule:nonzero;"/>
                </g>
                <g transform="matrix(50.9038,0,0,50.9038,404.627,0)">
                    <path d="M0.167,-0.664L0.167,-0.528L0.276,-0.528L0.276,-0.48L0.167,-0.48L0.167,-0.128C0.167,-0.099 0.172,-0.077 0.183,-0.063C0.193,-0.049 0.211,-0.042 0.236,-0.042C0.246,-0.042 0.261,-0.043 0.283,-0.046L0.286,0.001C0.27,0.007 0.25,0.01 0.223,0.01C0.183,0.01 0.154,-0.002 0.136,-0.025C0.118,-0.048 0.108,-0.083 0.108,-0.128L0.108,-0.48L0.011,-0.48L0.011,-0.528L0.108,-0.528L0.108,-0.664L0.167,-0.664Z" style="fill:rgb(0,143,17);fill-rule:nonzero;"/>
                </g>
                <g transform="matrix(50.9038,0,0,50.9038,420.983,0)">
                    <path d="M0.381,-0.052C0.346,-0.011 0.297,0.01 0.232,0.01C0.175,0.01 0.132,-0.007 0.102,-0.041C0.073,-0.074 0.058,-0.123 0.058,-0.186L0.058,-0.528L0.177,-0.528L0.177,-0.188C0.177,-0.12 0.205,-0.087 0.26,-0.087C0.318,-0.087 0.357,-0.108 0.377,-0.149L0.377,-0.528L0.496,-0.528L0.496,-0L0.384,-0L0.381,-0.052Z" style="fill:rgb(0,143,17);fill-rule:nonzero;"/>
                </g>
                <g transform="matrix(50.9038,0,0,50.9038,449.271,0)">
                    <path d="M0.32,-0.479C0.308,-0.481 0.295,-0.482 0.281,-0.482C0.244,-0.482 0.213,-0.472 0.188,-0.451C0.163,-0.431 0.145,-0.402 0.134,-0.363L0.134,-0L0.076,-0L0.076,-0.528L0.133,-0.528L0.134,-0.444C0.165,-0.507 0.215,-0.538 0.283,-0.538C0.299,-0.538 0.312,-0.536 0.322,-0.532L0.32,-0.479Z" style="fill:rgb(0,143,17);fill-rule:nonzero;"/>
                </g>
                <g transform="matrix(50.9038,0,0,50.9038,465.926,0)">
                    <path d="M0.281,0.01C0.236,0.01 0.195,-0.001 0.159,-0.023C0.123,-0.046 0.094,-0.076 0.074,-0.116C0.054,-0.156 0.044,-0.2 0.044,-0.249L0.044,-0.27C0.044,-0.321 0.054,-0.367 0.073,-0.407C0.093,-0.448 0.121,-0.48 0.156,-0.503C0.191,-0.526 0.229,-0.538 0.27,-0.538C0.334,-0.538 0.385,-0.516 0.423,-0.472C0.46,-0.429 0.479,-0.369 0.479,-0.293L0.479,-0.26L0.102,-0.26L0.102,-0.249C0.102,-0.189 0.119,-0.139 0.154,-0.099C0.188,-0.059 0.231,-0.04 0.283,-0.04C0.314,-0.04 0.342,-0.045 0.366,-0.057C0.39,-0.068 0.412,-0.086 0.431,-0.111L0.468,-0.083C0.425,-0.021 0.362,0.01 0.281,0.01ZM0.27,-0.488C0.226,-0.488 0.189,-0.472 0.159,-0.44C0.129,-0.408 0.111,-0.364 0.104,-0.31L0.421,-0.31L0.421,-0.316C0.419,-0.367 0.405,-0.409 0.377,-0.44C0.35,-0.472 0.314,-0.488 0.27,-0.488Z" style="fill:rgb(0,143,17);fill-rule:nonzero;"/>
                </g>
                <g transform="matrix(50.9038,0,0,50.9038,492.225,0)">
                    <path d="M0.34,-0.146C0.34,-0.163 0.332,-0.177 0.315,-0.187C0.298,-0.197 0.27,-0.206 0.232,-0.213C0.107,-0.24 0.044,-0.293 0.044,-0.374C0.044,-0.42 0.063,-0.46 0.102,-0.491C0.141,-0.522 0.192,-0.538 0.255,-0.538C0.322,-0.538 0.376,-0.522 0.416,-0.491C0.456,-0.459 0.476,-0.418 0.476,-0.368L0.335,-0.368C0.335,-0.388 0.328,-0.405 0.315,-0.418C0.302,-0.431 0.282,-0.438 0.254,-0.438C0.231,-0.438 0.212,-0.432 0.199,-0.421C0.186,-0.411 0.18,-0.397 0.18,-0.38C0.18,-0.365 0.187,-0.352 0.202,-0.343C0.217,-0.333 0.242,-0.325 0.277,-0.318C0.312,-0.311 0.342,-0.303 0.366,-0.294C0.44,-0.267 0.478,-0.219 0.478,-0.152C0.478,-0.104 0.457,-0.065 0.416,-0.035C0.374,-0.005 0.321,0.01 0.255,0.01C0.211,0.01 0.172,0.002 0.137,-0.014C0.103,-0.03 0.076,-0.051 0.057,-0.079C0.037,-0.106 0.027,-0.136 0.027,-0.168L0.161,-0.168C0.162,-0.143 0.172,-0.124 0.189,-0.11C0.206,-0.097 0.229,-0.09 0.258,-0.09C0.285,-0.09 0.306,-0.095 0.32,-0.106C0.333,-0.116 0.34,-0.129 0.34,-0.146Z" style="fill:rgb(0,143,17);fill-rule:nonzero;"/>
                </g>
                <g transform="matrix(50.9038,0,0,50.9038,530.794,0)">
                    <path d="M0.118,-0L0.118,-0.48L0.031,-0.48L0.031,-0.528L0.118,-0.528L0.118,-0.592C0.118,-0.646 0.132,-0.688 0.159,-0.717C0.187,-0.746 0.225,-0.76 0.274,-0.76C0.297,-0.76 0.317,-0.757 0.336,-0.752L0.332,-0.703C0.316,-0.707 0.298,-0.709 0.279,-0.709C0.247,-0.709 0.222,-0.699 0.204,-0.679C0.186,-0.659 0.177,-0.631 0.177,-0.594L0.177,-0.528L0.303,-0.528L0.303,-0.48L0.177,-0.48L0.177,-0L0.118,-0Z" style="fill:rgb(0,143,17);fill-rule:nonzero;"/>
                </g>
                <g transform="matrix(50.9038,0,0,50.9038,547.647,0)">
                    <path d="M0.044,-0.272C0.044,-0.323 0.054,-0.368 0.073,-0.409C0.093,-0.45 0.121,-0.482 0.157,-0.504C0.193,-0.527 0.234,-0.538 0.279,-0.538C0.35,-0.538 0.407,-0.513 0.45,-0.464C0.494,-0.415 0.516,-0.349 0.516,-0.268L0.516,-0.256C0.516,-0.205 0.506,-0.159 0.486,-0.118C0.466,-0.077 0.439,-0.046 0.403,-0.023C0.367,-0.001 0.326,0.01 0.28,0.01C0.21,0.01 0.153,-0.015 0.11,-0.064C0.066,-0.114 0.044,-0.179 0.044,-0.26L0.044,-0.272ZM0.103,-0.256C0.103,-0.193 0.119,-0.141 0.152,-0.1C0.184,-0.06 0.227,-0.04 0.28,-0.04C0.333,-0.04 0.376,-0.06 0.408,-0.1C0.441,-0.141 0.458,-0.194 0.458,-0.261L0.458,-0.272C0.458,-0.312 0.45,-0.349 0.435,-0.383C0.42,-0.416 0.399,-0.442 0.372,-0.461C0.345,-0.479 0.314,-0.488 0.279,-0.488C0.227,-0.488 0.185,-0.468 0.152,-0.427C0.119,-0.386 0.103,-0.333 0.103,-0.267L0.103,-0.256Z" style="fill:rgb(0,143,17);fill-rule:nonzero;"/>
                </g>
                <g transform="matrix(50.9038,0,0,50.9038,576.158,0)">
                    <path d="M0.32,-0.479C0.308,-0.481 0.295,-0.482 0.281,-0.482C0.244,-0.482 0.213,-0.472 0.188,-0.451C0.163,-0.431 0.145,-0.402 0.134,-0.363L0.134,-0L0.076,-0L0.076,-0.528L0.133,-0.528L0.134,-0.444C0.165,-0.507 0.215,-0.538 0.283,-0.538C0.299,-0.538 0.312,-0.536 0.322,-0.532L0.32,-0.479Z" style="fill:rgb(0,143,17);fill-rule:nonzero;"/>
                </g>
                <g transform="matrix(50.9038,0,0,50.9038,605.68,0)">
                    <path d="M0.129,-0.528L0.131,-0.442C0.151,-0.474 0.175,-0.498 0.205,-0.514C0.234,-0.53 0.266,-0.538 0.302,-0.538C0.386,-0.538 0.438,-0.504 0.461,-0.436C0.48,-0.468 0.505,-0.494 0.537,-0.511C0.568,-0.529 0.603,-0.538 0.641,-0.538C0.754,-0.538 0.812,-0.476 0.814,-0.353L0.814,-0L0.756,-0L0.756,-0.348C0.756,-0.395 0.745,-0.43 0.725,-0.453C0.705,-0.476 0.673,-0.487 0.627,-0.487C0.585,-0.487 0.55,-0.473 0.521,-0.447C0.492,-0.42 0.476,-0.388 0.473,-0.35L0.473,-0L0.414,-0L0.414,-0.353C0.414,-0.398 0.403,-0.432 0.382,-0.454C0.361,-0.476 0.329,-0.487 0.285,-0.487C0.248,-0.487 0.217,-0.477 0.19,-0.456C0.164,-0.435 0.145,-0.404 0.132,-0.362L0.132,-0L0.073,-0L0.073,-0.528L0.129,-0.528Z" style="fill:rgb(0,143,17);fill-rule:nonzero;"/>
                </g>
                <g transform="matrix(50.9038,0,0,50.9038,650.795,0)">
                    <path d="M0.41,-0C0.404,-0.017 0.4,-0.041 0.398,-0.074C0.378,-0.047 0.352,-0.026 0.32,-0.012C0.288,0.003 0.255,0.01 0.219,0.01C0.168,0.01 0.127,-0.004 0.096,-0.033C0.065,-0.061 0.049,-0.097 0.049,-0.14C0.049,-0.192 0.07,-0.232 0.113,-0.262C0.156,-0.292 0.215,-0.307 0.292,-0.307L0.398,-0.307L0.398,-0.367C0.398,-0.405 0.386,-0.435 0.363,-0.456C0.34,-0.478 0.306,-0.489 0.261,-0.489C0.221,-0.489 0.187,-0.478 0.16,-0.458C0.133,-0.437 0.12,-0.412 0.12,-0.382L0.062,-0.383C0.062,-0.425 0.081,-0.461 0.12,-0.492C0.159,-0.523 0.207,-0.538 0.264,-0.538C0.323,-0.538 0.37,-0.523 0.404,-0.494C0.438,-0.464 0.455,-0.423 0.456,-0.371L0.456,-0.121C0.456,-0.069 0.461,-0.031 0.472,-0.006L0.472,-0L0.41,-0ZM0.226,-0.042C0.265,-0.042 0.3,-0.051 0.331,-0.07C0.362,-0.089 0.384,-0.114 0.398,-0.146L0.398,-0.262L0.293,-0.262C0.235,-0.262 0.19,-0.251 0.157,-0.23C0.124,-0.21 0.107,-0.181 0.107,-0.145C0.107,-0.115 0.118,-0.091 0.14,-0.071C0.162,-0.052 0.191,-0.042 0.226,-0.042Z" style="fill:rgb(0,143,17);fill-rule:nonzero;"/>
                </g>
                <g transform="matrix(50.9038,0,0,50.9038,678.063,0)">
                    <path d="M0.271,-0.04C0.312,-0.04 0.346,-0.051 0.374,-0.074C0.401,-0.097 0.416,-0.127 0.418,-0.163L0.475,-0.163C0.473,-0.131 0.463,-0.101 0.444,-0.075C0.426,-0.048 0.401,-0.028 0.37,-0.013C0.34,0.002 0.307,0.01 0.271,0.01C0.202,0.01 0.147,-0.014 0.107,-0.063C0.066,-0.111 0.046,-0.175 0.046,-0.257L0.046,-0.274C0.046,-0.326 0.055,-0.373 0.073,-0.413C0.091,-0.453 0.118,-0.484 0.152,-0.505C0.186,-0.527 0.225,-0.538 0.271,-0.538C0.329,-0.538 0.377,-0.521 0.414,-0.486C0.452,-0.452 0.472,-0.406 0.475,-0.35L0.418,-0.35C0.416,-0.391 0.401,-0.425 0.374,-0.45C0.347,-0.476 0.312,-0.488 0.271,-0.488C0.218,-0.488 0.177,-0.469 0.148,-0.431C0.119,-0.393 0.104,-0.34 0.104,-0.271L0.104,-0.254C0.104,-0.187 0.119,-0.134 0.148,-0.096C0.177,-0.058 0.218,-0.04 0.271,-0.04Z" style="fill:rgb(0,143,17);fill-rule:nonzero;"/>
                </g>
                <g transform="matrix(50.9038,0,0,50.9038,704.287,0)">
                    <path d="M0.134,-0.439C0.153,-0.471 0.178,-0.495 0.208,-0.512C0.238,-0.529 0.271,-0.538 0.306,-0.538C0.363,-0.538 0.405,-0.522 0.433,-0.49C0.46,-0.458 0.474,-0.41 0.475,-0.347L0.475,-0L0.417,-0L0.417,-0.347C0.416,-0.394 0.406,-0.43 0.386,-0.453C0.367,-0.476 0.335,-0.487 0.292,-0.487C0.256,-0.487 0.224,-0.476 0.196,-0.453C0.168,-0.431 0.148,-0.4 0.134,-0.362L0.134,-0L0.076,-0L0.076,-0.75L0.134,-0.75L0.134,-0.439Z" style="fill:rgb(0,143,17);fill-rule:nonzero;"/>
                </g>
                <g transform="matrix(50.9038,0,0,50.9038,732.226,0)">
                    <path d="M0.142,-0L0.083,-0L0.083,-0.528L0.142,-0.528L0.142,-0ZM0.073,-0.681C0.073,-0.692 0.076,-0.702 0.083,-0.709C0.091,-0.717 0.1,-0.721 0.113,-0.721C0.125,-0.721 0.135,-0.717 0.142,-0.709C0.15,-0.702 0.153,-0.692 0.153,-0.681C0.153,-0.67 0.15,-0.661 0.142,-0.653C0.135,-0.646 0.125,-0.642 0.113,-0.642C0.1,-0.642 0.091,-0.646 0.083,-0.653C0.076,-0.661 0.073,-0.67 0.073,-0.681Z" style="fill:rgb(0,143,17);fill-rule:nonzero;"/>
                </g>
                <g transform="matrix(50.9038,0,0,50.9038,743.637,0)">
                    <path d="M0.132,-0.528L0.134,-0.438C0.154,-0.471 0.178,-0.495 0.208,-0.512C0.238,-0.53 0.27,-0.538 0.306,-0.538C0.363,-0.538 0.405,-0.522 0.433,-0.49C0.46,-0.458 0.474,-0.41 0.475,-0.347L0.475,-0L0.417,-0L0.417,-0.347C0.416,-0.394 0.406,-0.43 0.386,-0.453C0.367,-0.476 0.335,-0.487 0.292,-0.487C0.256,-0.487 0.224,-0.476 0.196,-0.453C0.168,-0.431 0.148,-0.4 0.134,-0.362L0.134,-0L0.076,-0L0.076,-0.528L0.132,-0.528Z" style="fill:rgb(0,143,17);fill-rule:nonzero;"/>
                </g>
                <g transform="matrix(50.9038,0,0,50.9038,771.601,0)">
                    <path d="M0.281,0.01C0.236,0.01 0.195,-0.001 0.159,-0.023C0.123,-0.046 0.094,-0.076 0.074,-0.116C0.054,-0.156 0.044,-0.2 0.044,-0.249L0.044,-0.27C0.044,-0.321 0.054,-0.367 0.073,-0.407C0.093,-0.448 0.121,-0.48 0.156,-0.503C0.191,-0.526 0.229,-0.538 0.27,-0.538C0.334,-0.538 0.385,-0.516 0.423,-0.472C0.46,-0.429 0.479,-0.369 0.479,-0.293L0.479,-0.26L0.102,-0.26L0.102,-0.249C0.102,-0.189 0.119,-0.139 0.154,-0.099C0.188,-0.059 0.231,-0.04 0.283,-0.04C0.314,-0.04 0.342,-0.045 0.366,-0.057C0.39,-0.068 0.412,-0.086 0.431,-0.111L0.468,-0.083C0.425,-0.021 0.362,0.01 0.281,0.01ZM0.27,-0.488C0.226,-0.488 0.189,-0.472 0.159,-0.44C0.129,-0.408 0.111,-0.364 0.104,-0.31L0.421,-0.31L0.421,-0.316C0.419,-0.367 0.405,-0.409 0.377,-0.44C0.35,-0.472 0.314,-0.488 0.27,-0.488Z" style="fill:rgb(0,143,17);fill-rule:nonzero;"/>
                </g>
                <g transform="matrix(50.9038,0,0,50.9038,810.294,0)">
                    <rect x="0.083" y="-0.75" width="0.059" height="0.75" style="fill:rgb(0,143,17);fill-rule:nonzero;"/>
                </g>
                <g transform="matrix(50.9038,0,0,50.9038,821.705,0)">
                    <path d="M0.281,0.01C0.236,0.01 0.195,-0.001 0.159,-0.023C0.123,-0.046 0.094,-0.076 0.074,-0.116C0.054,-0.156 0.044,-0.2 0.044,-0.249L0.044,-0.27C0.044,-0.321 0.054,-0.367 0.073,-0.407C0.093,-0.448 0.121,-0.48 0.156,-0.503C0.191,-0.526 0.229,-0.538 0.27,-0.538C0.334,-0.538 0.385,-0.516 0.423,-0.472C0.46,-0.429 0.479,-0.369 0.479,-0.293L0.479,-0.26L0.102,-0.26L0.102,-0.249C0.102,-0.189 0.119,-0.139 0.154,-0.099C0.188,-0.059 0.231,-0.04 0.283,-0.04C0.314,-0.04 0.342,-0.045 0.366,-0.057C0.39,-0.068 0.412,-0.086 0.431,-0.111L0.468,-0.083C0.425,-0.021 0.362,0.01 0.281,0.01ZM0.27,-0.488C0.226,-0.488 0.189,-0.472 0.159,-0.44C0.129,-0.408 0.111,-0.364 0.104,-0.31L0.421,-0.31L0.421,-0.316C0.419,-0.367 0.405,-0.409 0.377,-0.44C0.35,-0.472 0.314,-0.488 0.27,-0.488Z" style="fill:rgb(0,143,17);fill-rule:nonzero;"/>
                </g>
                <g transform="matrix(50.9038,0,0,50.9038,848.004,0)">
                    <path d="M0.41,-0C0.404,-0.017 0.4,-0.041 0.398,-0.074C0.378,-0.047 0.352,-0.026 0.32,-0.012C0.288,0.003 0.255,0.01 0.219,0.01C0.168,0.01 0.127,-0.004 0.096,-0.033C0.065,-0.061 0.049,-0.097 0.049,-0.14C0.049,-0.192 0.07,-0.232 0.113,-0.262C0.156,-0.292 0.215,-0.307 0.292,-0.307L0.398,-0.307L0.398,-0.367C0.398,-0.405 0.386,-0.435 0.363,-0.456C0.34,-0.478 0.306,-0.489 0.261,-0.489C0.221,-0.489 0.187,-0.478 0.16,-0.458C0.133,-0.437 0.12,-0.412 0.12,-0.382L0.062,-0.383C0.062,-0.425 0.081,-0.461 0.12,-0.492C0.159,-0.523 0.207,-0.538 0.264,-0.538C0.323,-0.538 0.37,-0.523 0.404,-0.494C0.438,-0.464 0.455,-0.423 0.456,-0.371L0.456,-0.121C0.456,-0.069 0.461,-0.031 0.472,-0.006L0.472,-0L0.41,-0ZM0.226,-0.042C0.265,-0.042 0.3,-0.051 0.331,-0.07C0.362,-0.089 0.384,-0.114 0.398,-0.146L0.398,-0.262L0.293,-0.262C0.235,-0.262 0.19,-0.251 0.157,-0.23C0.124,-0.21 0.107,-0.181 0.107,-0.145C0.107,-0.115 0.118,-0.091 0.14,-0.071C0.162,-0.052 0.191,-0.042 0.226,-0.042Z" style="fill:rgb(0,143,17);fill-rule:nonzero;"/>
                </g>
                <g transform="matrix(50.9038,0,0,50.9038,875.272,0)">
                    <path d="M0.32,-0.479C0.308,-0.481 0.295,-0.482 0.281,-0.482C0.244,-0.482 0.213,-0.472 0.188,-0.451C0.163,-0.431 0.145,-0.402 0.134,-0.363L0.134,-0L0.076,-0L0.076,-0.528L0.133,-0.528L0.134,-0.444C0.165,-0.507 0.215,-0.538 0.283,-0.538C0.299,-0.538 0.312,-0.536 0.322,-0.532L0.32,-0.479Z" style="fill:rgb(0,143,17);fill-rule:nonzero;"/>
                </g>
                <g transform="matrix(50.9038,0,0,50.9038,892.399,0)">
                    <path d="M0.132,-0.528L0.134,-0.438C0.154,-0.471 0.178,-0.495 0.208,-0.512C0.238,-0.53 0.27,-0.538 0.306,-0.538C0.363,-0.538 0.405,-0.522 0.433,-0.49C0.46,-0.458 0.474,-0.41 0.475,-0.347L0.475,-0L0.417,-0L0.417,-0.347C0.416,-0.394 0.406,-0.43 0.386,-0.453C0.367,-0.476 0.335,-0.487 0.292,-0.487C0.256,-0.487 0.224,-0.476 0.196,-0.453C0.168,-0.431 0.148,-0.4 0.134,-0.362L0.134,-0L0.076,-0L0.076,-0.528L0.132,-0.528Z" style="fill:rgb(0,143,17);fill-rule:nonzero;"/>
                </g>
                <g transform="matrix(50.9038,0,0,50.9038,920.364,0)">
                    <path d="M0.142,-0L0.083,-0L0.083,-0.528L0.142,-0.528L0.142,-0ZM0.073,-0.681C0.073,-0.692 0.076,-0.702 0.083,-0.709C0.091,-0.717 0.1,-0.721 0.113,-0.721C0.125,-0.721 0.135,-0.717 0.142,-0.709C0.15,-0.702 0.153,-0.692 0.153,-0.681C0.153,-0.67 0.15,-0.661 0.142,-0.653C0.135,-0.646 0.125,-0.642 0.113,-0.642C0.1,-0.642 0.091,-0.646 0.083,-0.653C0.076,-0.661 0.073,-0.67 0.073,-0.681Z" style="fill:rgb(0,143,17);fill-rule:nonzero;"/>
                </g>
                <g transform="matrix(50.9038,0,0,50.9038,931.774,0)">
                    <path d="M0.132,-0.528L0.134,-0.438C0.154,-0.471 0.178,-0.495 0.208,-0.512C0.238,-0.53 0.27,-0.538 0.306,-0.538C0.363,-0.538 0.405,-0.522 0.433,-0.49C0.46,-0.458 0.474,-0.41 0.475,-0.347L0.475,-0L0.417,-0L0.417,-0.347C0.416,-0.394 0.406,-0.43 0.386,-0.453C0.367,-0.476 0.335,-0.487 0.292,-0.487C0.256,-0.487 0.224,-0.476 0.196,-0.453C0.168,-0.431 0.148,-0.4 0.134,-0.362L0.134,-0L0.076,-0L0.076,-0.528L0.132,-0.528Z" style="fill:rgb(0,143,17);fill-rule:nonzero;"/>
                </g>
                <g transform="matrix(50.9038,0,0,50.9038,959.738,0)">
                    <path d="M0.053,-0.269C0.053,-0.352 0.071,-0.417 0.108,-0.466C0.144,-0.514 0.194,-0.538 0.257,-0.538C0.329,-0.538 0.383,-0.509 0.421,-0.452L0.424,-0.528L0.479,-0.528L0.479,-0.011C0.479,0.057 0.459,0.111 0.421,0.151C0.383,0.191 0.332,0.21 0.267,0.21C0.23,0.21 0.195,0.202 0.161,0.186C0.128,0.169 0.102,0.147 0.083,0.12L0.115,0.085C0.157,0.136 0.206,0.161 0.263,0.161C0.312,0.161 0.35,0.147 0.377,0.118C0.404,0.089 0.418,0.049 0.419,-0.002L0.419,-0.068C0.382,-0.016 0.327,0.01 0.256,0.01C0.195,0.01 0.146,-0.015 0.108,-0.063C0.071,-0.112 0.053,-0.178 0.053,-0.261L0.053,-0.269ZM0.112,-0.259C0.112,-0.191 0.125,-0.138 0.152,-0.099C0.179,-0.06 0.217,-0.041 0.267,-0.041C0.339,-0.041 0.389,-0.073 0.419,-0.138L0.419,-0.383C0.406,-0.417 0.386,-0.443 0.36,-0.461C0.335,-0.478 0.304,-0.487 0.268,-0.487C0.218,-0.487 0.18,-0.468 0.153,-0.429C0.125,-0.391 0.112,-0.334 0.112,-0.259Z" style="fill:rgb(0,143,17);fill-rule:nonzero;"/>
                </g>
            </g>
        </g>
    </g>
</svg>
