<?xml version="1.0" encoding="UTF-8" standalone="no"?>
<!DOCTYPE svg PUBLIC "-//W3C//DTD SVG 1.1//EN" "http://www.w3.org/Graphics/SVG/1.1/DTD/svg11.dtd">
<svg width="100%" height="100%" viewBox="0 0 1042 223" version="1.1" xmlns="http://www.w3.org/2000/svg" xmlns:xlink="http://www.w3.org/1999/xlink" xml:space="preserve" xmlns:serif="http://www.serif.com/" style="fill-rule:evenodd;clip-rule:evenodd;stroke-linejoin:round;stroke-miterlimit:2;">
    <g transform="matrix(1,0,0,1,-139.567,-613.835)">
        <g transform="matrix(1.04243,0,0,1.04243,-648.904,109.693)">
            <g transform="matrix(266.667,0,0,266.667,736.376,622.021)">
                <path d="M0.404,-0.089L0.332,-0.089L0.16,-0.402L0.138,-0L0.075,-0L0.106,-0.509L0.165,-0.509L0.368,-0.144L0.571,-0.509L0.63,-0.509L0.661,-0L0.598,-0L0.576,-0.402L0.404,-0.089Z" style="fill-rule:nonzero;"/>
            </g>
            <g transform="matrix(266.667,0,0,266.667,932.643,622.021)">
                <path d="M0.317,0.01C0.277,0.01 0.241,0.003 0.208,-0.011C0.175,-0.024 0.146,-0.043 0.123,-0.067C0.1,-0.091 0.082,-0.119 0.069,-0.151C0.056,-0.183 0.05,-0.217 0.05,-0.254C0.05,-0.291 0.056,-0.325 0.069,-0.358C0.082,-0.39 0.1,-0.418 0.123,-0.442C0.146,-0.466 0.175,-0.485 0.208,-0.499C0.241,-0.512 0.277,-0.519 0.317,-0.519C0.357,-0.519 0.393,-0.512 0.427,-0.499C0.46,-0.485 0.488,-0.466 0.511,-0.442C0.534,-0.418 0.552,-0.39 0.565,-0.358C0.578,-0.325 0.584,-0.291 0.584,-0.254C0.584,-0.217 0.578,-0.183 0.565,-0.151C0.552,-0.119 0.534,-0.091 0.511,-0.067C0.488,-0.043 0.46,-0.024 0.427,-0.011C0.393,0.003 0.357,0.01 0.317,0.01ZM0.317,-0.045C0.348,-0.045 0.376,-0.05 0.401,-0.061C0.426,-0.072 0.447,-0.087 0.464,-0.106C0.481,-0.125 0.494,-0.147 0.503,-0.172C0.512,-0.197 0.517,-0.225 0.517,-0.254C0.517,-0.283 0.512,-0.311 0.503,-0.337C0.494,-0.362 0.481,-0.385 0.464,-0.404C0.447,-0.423 0.426,-0.437 0.401,-0.448C0.376,-0.459 0.348,-0.464 0.317,-0.464C0.286,-0.464 0.258,-0.459 0.233,-0.448C0.208,-0.437 0.188,-0.423 0.171,-0.404C0.154,-0.385 0.14,-0.362 0.131,-0.337C0.122,-0.311 0.117,-0.283 0.117,-0.254C0.117,-0.225 0.122,-0.197 0.131,-0.172C0.14,-0.147 0.154,-0.125 0.171,-0.106C0.188,-0.087 0.208,-0.072 0.233,-0.061C0.258,-0.05 0.286,-0.045 0.317,-0.045Z" style="fill-rule:nonzero;"/>
            </g>
            <g transform="matrix(266.667,0,0,266.667,1101.71,622.021)">
                <path d="M0.443,-0.364C0.443,-0.325 0.43,-0.293 0.403,-0.268C0.376,-0.242 0.341,-0.224 0.298,-0.215L0.5,-0L0.414,-0L0.228,-0.206C0.223,-0.205 0.218,-0.205 0.213,-0.205L0.157,-0.205L0.157,-0L0.09,-0L0.09,-0.509L0.245,-0.509C0.272,-0.509 0.297,-0.506 0.321,-0.5C0.345,-0.493 0.366,-0.484 0.384,-0.472C0.402,-0.46 0.416,-0.445 0.427,-0.427C0.438,-0.409 0.443,-0.388 0.443,-0.364ZM0.377,-0.362C0.377,-0.379 0.373,-0.393 0.366,-0.405C0.359,-0.416 0.349,-0.426 0.336,-0.433C0.323,-0.44 0.309,-0.446 0.293,-0.449C0.276,-0.452 0.259,-0.454 0.241,-0.454L0.157,-0.454L0.157,-0.259L0.214,-0.259C0.262,-0.259 0.301,-0.268 0.332,-0.285C0.362,-0.302 0.377,-0.327 0.377,-0.362Z" style="fill-rule:nonzero;"/>
            </g>
            <g transform="matrix(266.667,0,0,266.667,1241.18,622.021)">
                <path d="M0.09,-0L0.09,-0.509L0.403,-0.509L0.403,-0.453L0.157,-0.453L0.157,-0.272L0.394,-0.272L0.394,-0.216L0.157,-0.216L0.157,-0L0.09,-0Z" style="fill-rule:nonzero;"/>
            </g>
            <g transform="matrix(266.667,0,0,266.667,1360.11,622.021)">
                <path d="M0.09,-0.509L0.401,-0.509L0.401,-0.454L0.157,-0.454L0.157,-0.282L0.392,-0.282L0.392,-0.227L0.157,-0.227L0.157,-0.055L0.404,-0.055L0.404,-0L0.09,-0L0.09,-0.509Z" style="fill-rule:nonzero;"/>
            </g>
            <g transform="matrix(266.667,0,0,266.667,1484.38,622.021)">
                <path d="M0.46,-0.509L0.527,-0.509L0.527,-0.19C0.527,-0.162 0.522,-0.136 0.513,-0.112C0.503,-0.087 0.489,-0.066 0.47,-0.048C0.451,-0.03 0.428,-0.016 0.401,-0.006C0.374,0.005 0.342,0.01 0.307,0.01C0.272,0.01 0.24,0.005 0.213,-0.006C0.186,-0.016 0.163,-0.03 0.144,-0.048C0.125,-0.066 0.111,-0.087 0.102,-0.112C0.092,-0.136 0.087,-0.162 0.087,-0.19L0.087,-0.509L0.154,-0.509L0.154,-0.185C0.154,-0.143 0.167,-0.109 0.193,-0.084C0.219,-0.058 0.257,-0.045 0.307,-0.045C0.357,-0.045 0.395,-0.058 0.421,-0.084C0.447,-0.109 0.46,-0.143 0.46,-0.185L0.46,-0.509Z" style="fill-rule:nonzero;"/>
            </g>
            <g transform="matrix(266.667,0,0,266.667,1648.11,622.021)">
                <path d="M0.403,-0.137C0.403,-0.114 0.398,-0.093 0.389,-0.075C0.379,-0.056 0.366,-0.041 0.349,-0.029C0.332,-0.016 0.313,-0.007 0.29,-0C0.267,0.007 0.243,0.01 0.217,0.01C0.204,0.01 0.19,0.009 0.176,0.008C0.161,0.006 0.147,0.004 0.133,0.001C0.119,-0.003 0.106,-0.006 0.094,-0.01C0.081,-0.014 0.07,-0.018 0.06,-0.023L0.074,-0.078C0.093,-0.069 0.116,-0.061 0.141,-0.055C0.166,-0.048 0.191,-0.045 0.216,-0.045C0.25,-0.045 0.279,-0.052 0.302,-0.067C0.325,-0.082 0.336,-0.103 0.336,-0.132C0.336,-0.147 0.333,-0.159 0.327,-0.17C0.32,-0.181 0.312,-0.19 0.301,-0.198C0.29,-0.206 0.277,-0.213 0.262,-0.22C0.247,-0.227 0.231,-0.233 0.214,-0.24C0.191,-0.249 0.171,-0.258 0.153,-0.267C0.134,-0.276 0.118,-0.286 0.106,-0.297C0.093,-0.308 0.082,-0.322 0.075,-0.337C0.068,-0.352 0.064,-0.37 0.064,-0.391C0.064,-0.432 0.079,-0.463 0.11,-0.486C0.141,-0.508 0.182,-0.519 0.233,-0.519C0.263,-0.519 0.29,-0.516 0.315,-0.51C0.339,-0.503 0.361,-0.495 0.382,-0.485L0.369,-0.431C0.349,-0.44 0.327,-0.448 0.304,-0.455C0.281,-0.461 0.256,-0.464 0.231,-0.464C0.201,-0.464 0.177,-0.458 0.159,-0.446C0.14,-0.434 0.131,-0.416 0.131,-0.392C0.131,-0.38 0.133,-0.37 0.137,-0.361C0.141,-0.352 0.147,-0.345 0.156,-0.338C0.164,-0.331 0.174,-0.324 0.187,-0.319C0.199,-0.313 0.213,-0.307 0.23,-0.3C0.248,-0.293 0.267,-0.285 0.288,-0.276C0.308,-0.267 0.327,-0.257 0.344,-0.245C0.361,-0.232 0.375,-0.217 0.386,-0.2C0.397,-0.183 0.403,-0.162 0.403,-0.137Z" style="fill-rule:nonzero;"/>
            </g>
        </g>
        <g transform="matrix(1,0,0,1,137.487,824.067)">
            <g transform="matrix(58.3333,0,0,58.3333,0,0)">
                <path d="M0.236,-0.711L0.381,-0.085L0.745,-0.711L0.825,-0.711L0.702,-0L0.642,-0L0.696,-0.312L0.754,-0.62L0.393,-0L0.347,-0L0.199,-0.625L0.149,-0.309L0.095,-0L0.036,-0L0.159,-0.711L0.236,-0.711Z" style="fill:rgb(0,191,2);fill-rule:nonzero;"/>
            </g>
            <g transform="matrix(58.3333,0,0,58.3333,49.2472,0)">
                <path d="M0.282,0.01C0.215,0.008 0.163,-0.015 0.124,-0.059C0.085,-0.104 0.064,-0.164 0.061,-0.239C0.059,-0.265 0.06,-0.291 0.064,-0.316L0.074,-0.384C0.088,-0.483 0.124,-0.564 0.181,-0.627C0.239,-0.691 0.311,-0.722 0.397,-0.721C0.441,-0.72 0.479,-0.709 0.511,-0.689C0.544,-0.668 0.57,-0.639 0.588,-0.6C0.606,-0.561 0.616,-0.518 0.618,-0.472C0.619,-0.444 0.617,-0.416 0.613,-0.39L0.602,-0.314C0.591,-0.247 0.57,-0.189 0.539,-0.139C0.508,-0.089 0.471,-0.051 0.427,-0.026C0.383,-0.001 0.334,0.011 0.282,0.01ZM0.555,-0.395C0.557,-0.416 0.559,-0.436 0.559,-0.458C0.559,-0.497 0.553,-0.533 0.541,-0.566C0.528,-0.598 0.51,-0.623 0.485,-0.641C0.46,-0.658 0.43,-0.667 0.394,-0.668C0.329,-0.67 0.273,-0.647 0.228,-0.598C0.182,-0.55 0.151,-0.485 0.137,-0.402C0.125,-0.336 0.119,-0.286 0.12,-0.254C0.12,-0.189 0.134,-0.137 0.163,-0.1C0.192,-0.063 0.232,-0.044 0.285,-0.042C0.354,-0.041 0.411,-0.066 0.457,-0.118C0.502,-0.169 0.531,-0.238 0.544,-0.323L0.555,-0.395Z" style="fill:rgb(0,191,2);fill-rule:nonzero;"/>
            </g>
            <g transform="matrix(58.3333,0,0,58.3333,87.8133,0)">
                <path d="M0.087,-0L0.029,-0L0.159,-0.75L0.218,-0.75L0.087,-0Z" style="fill:rgb(0,191,2);fill-rule:nonzero;"/>
            </g>
            <g transform="matrix(58.3333,0,0,58.3333,100.773,0)">
                <path d="M0.232,0.01C0.19,0.009 0.153,-0.003 0.122,-0.026C0.091,-0.049 0.068,-0.08 0.054,-0.119C0.039,-0.159 0.034,-0.202 0.039,-0.248L0.04,-0.264C0.045,-0.313 0.059,-0.359 0.083,-0.404C0.108,-0.448 0.139,-0.481 0.176,-0.505C0.214,-0.528 0.254,-0.539 0.296,-0.538C0.336,-0.537 0.369,-0.527 0.396,-0.506C0.423,-0.485 0.443,-0.456 0.456,-0.419C0.468,-0.382 0.472,-0.341 0.467,-0.296L0.463,-0.26L0.098,-0.26L0.096,-0.249C0.091,-0.213 0.094,-0.179 0.104,-0.147C0.114,-0.114 0.131,-0.089 0.154,-0.07C0.177,-0.051 0.204,-0.041 0.236,-0.04C0.268,-0.039 0.296,-0.045 0.321,-0.058C0.346,-0.071 0.369,-0.089 0.39,-0.11L0.424,-0.083C0.401,-0.052 0.372,-0.029 0.34,-0.013C0.307,0.003 0.271,0.01 0.232,0.01ZM0.293,-0.488C0.251,-0.49 0.213,-0.475 0.18,-0.443C0.146,-0.412 0.121,-0.367 0.104,-0.31L0.411,-0.31L0.412,-0.317C0.418,-0.363 0.41,-0.403 0.388,-0.436C0.366,-0.47 0.334,-0.487 0.293,-0.488Z" style="fill:rgb(0,191,2);fill-rule:nonzero;"/>
            </g>
            <g transform="matrix(58.3333,0,0,58.3333,130.282,0)">
                <path d="M0.227,-0.039C0.265,-0.038 0.299,-0.048 0.329,-0.071C0.358,-0.094 0.378,-0.124 0.388,-0.163L0.443,-0.163C0.433,-0.11 0.407,-0.068 0.366,-0.036C0.324,-0.004 0.277,0.012 0.224,0.01C0.181,0.009 0.146,-0.002 0.117,-0.025C0.088,-0.047 0.067,-0.078 0.054,-0.118C0.041,-0.158 0.037,-0.203 0.042,-0.252L0.043,-0.273C0.047,-0.308 0.056,-0.341 0.069,-0.373C0.081,-0.405 0.099,-0.434 0.12,-0.459C0.142,-0.484 0.167,-0.503 0.197,-0.518C0.227,-0.532 0.26,-0.539 0.298,-0.538C0.352,-0.537 0.395,-0.519 0.427,-0.483C0.459,-0.448 0.474,-0.404 0.472,-0.35L0.417,-0.35C0.417,-0.391 0.407,-0.424 0.385,-0.449C0.363,-0.474 0.333,-0.487 0.295,-0.488C0.255,-0.49 0.219,-0.478 0.188,-0.453C0.158,-0.428 0.134,-0.393 0.119,-0.348C0.103,-0.303 0.096,-0.255 0.097,-0.204C0.098,-0.152 0.109,-0.111 0.132,-0.083C0.154,-0.055 0.186,-0.04 0.227,-0.039Z" style="fill:rgb(0,191,2);fill-rule:nonzero;"/>
            </g>
            <g transform="matrix(58.3333,0,0,58.3333,159.705,0)">
                <path d="M0.373,-0.066C0.331,-0.014 0.273,0.012 0.199,0.01C0.149,0.009 0.112,-0.009 0.088,-0.044C0.063,-0.079 0.055,-0.128 0.062,-0.19L0.118,-0.528L0.176,-0.528L0.12,-0.188C0.118,-0.171 0.118,-0.153 0.119,-0.136C0.121,-0.106 0.13,-0.083 0.146,-0.067C0.162,-0.051 0.183,-0.042 0.21,-0.041C0.25,-0.039 0.286,-0.048 0.319,-0.068C0.352,-0.088 0.374,-0.114 0.383,-0.146L0.449,-0.528L0.507,-0.528L0.416,-0L0.359,-0L0.373,-0.066Z" style="fill:rgb(0,191,2);fill-rule:nonzero;"/>
            </g>
            <g transform="matrix(58.3333,0,0,58.3333,191.064,0)">
                <path d="M0.087,-0L0.029,-0L0.159,-0.75L0.218,-0.75L0.087,-0Z" style="fill:rgb(0,191,2);fill-rule:nonzero;"/>
            </g>
            <g transform="matrix(58.3333,0,0,58.3333,204.024,0)">
                <path d="M0.351,-0C0.349,-0.012 0.349,-0.025 0.35,-0.037L0.354,-0.074C0.33,-0.047 0.302,-0.027 0.27,-0.012C0.239,0.003 0.205,0.01 0.168,0.01C0.124,0.009 0.088,-0.005 0.06,-0.032C0.032,-0.06 0.02,-0.095 0.022,-0.136C0.025,-0.171 0.037,-0.201 0.058,-0.227C0.08,-0.252 0.11,-0.272 0.149,-0.286C0.189,-0.301 0.233,-0.308 0.282,-0.308L0.39,-0.307L0.398,-0.368C0.402,-0.404 0.395,-0.433 0.375,-0.455C0.355,-0.476 0.327,-0.488 0.289,-0.489C0.25,-0.49 0.217,-0.48 0.188,-0.461C0.16,-0.441 0.142,-0.415 0.135,-0.383L0.078,-0.383C0.084,-0.429 0.108,-0.467 0.149,-0.496C0.19,-0.525 0.238,-0.539 0.294,-0.539C0.349,-0.537 0.391,-0.521 0.42,-0.489C0.45,-0.458 0.462,-0.417 0.456,-0.366L0.412,-0.101L0.408,-0.058C0.407,-0.041 0.409,-0.023 0.412,-0.006L0.411,-0L0.351,-0ZM0.178,-0.042C0.214,-0.04 0.248,-0.049 0.281,-0.067C0.314,-0.086 0.341,-0.112 0.362,-0.146L0.382,-0.262L0.289,-0.263C0.23,-0.263 0.181,-0.252 0.144,-0.231C0.107,-0.21 0.086,-0.18 0.082,-0.141C0.079,-0.112 0.087,-0.089 0.105,-0.07C0.123,-0.052 0.147,-0.042 0.178,-0.042Z" style="fill:rgb(0,191,2);fill-rule:nonzero;"/>
            </g>
            <g transform="matrix(58.3333,0,0,58.3333,234.615,0)">
                <path d="M0.347,-0.296L0.146,-0.296L0.094,-0L0.034,-0L0.158,-0.711L0.368,-0.71C0.439,-0.71 0.494,-0.692 0.532,-0.655C0.571,-0.618 0.587,-0.568 0.581,-0.505C0.576,-0.458 0.558,-0.417 0.527,-0.382C0.496,-0.348 0.455,-0.323 0.404,-0.307L0.525,-0.007L0.525,-0L0.461,-0L0.347,-0.296ZM0.155,-0.347L0.331,-0.347C0.381,-0.347 0.424,-0.361 0.459,-0.391C0.495,-0.42 0.515,-0.459 0.521,-0.506C0.527,-0.551 0.516,-0.588 0.491,-0.616C0.465,-0.643 0.427,-0.658 0.377,-0.659L0.209,-0.66L0.155,-0.347Z" style="fill:rgb(0,191,2);fill-rule:nonzero;"/>
            </g>
            <g transform="matrix(58.3333,0,0,58.3333,284.859,0)">
                <path d="M0.475,-0.332L0.153,-0.332L0.095,-0L0.036,-0L0.159,-0.711L0.588,-0.711L0.579,-0.66L0.21,-0.66L0.162,-0.383L0.484,-0.383L0.475,-0.332Z" style="fill:rgb(0,191,2);fill-rule:nonzero;"/>
            </g>
            <g transform="matrix(58.3333,0,0,58.3333,316.96,0)">
                <path d="M0.477,-0.341L0.155,-0.341L0.104,-0.051L0.475,-0.051L0.466,-0L0.036,-0L0.159,-0.711L0.587,-0.711L0.578,-0.66L0.21,-0.66L0.163,-0.392L0.486,-0.392L0.477,-0.341Z" style="fill:rgb(0,191,2);fill-rule:nonzero;"/>
            </g>
            <g transform="matrix(58.3333,0,0,58.3333,349.43,0)">
                <path d="M0.351,-0C0.349,-0.012 0.349,-0.025 0.35,-0.037L0.354,-0.074C0.33,-0.047 0.302,-0.027 0.27,-0.012C0.239,0.003 0.205,0.01 0.168,0.01C0.124,0.009 0.088,-0.005 0.06,-0.032C0.032,-0.06 0.02,-0.095 0.022,-0.136C0.025,-0.171 0.037,-0.201 0.058,-0.227C0.08,-0.252 0.11,-0.272 0.149,-0.286C0.189,-0.301 0.233,-0.308 0.282,-0.308L0.39,-0.307L0.398,-0.368C0.402,-0.404 0.395,-0.433 0.375,-0.455C0.355,-0.476 0.327,-0.488 0.289,-0.489C0.25,-0.49 0.217,-0.48 0.188,-0.461C0.16,-0.441 0.142,-0.415 0.135,-0.383L0.078,-0.383C0.084,-0.429 0.108,-0.467 0.149,-0.496C0.19,-0.525 0.238,-0.539 0.294,-0.539C0.349,-0.537 0.391,-0.521 0.42,-0.489C0.45,-0.458 0.462,-0.417 0.456,-0.366L0.412,-0.101L0.408,-0.058C0.407,-0.041 0.409,-0.023 0.412,-0.006L0.411,-0L0.351,-0ZM0.178,-0.042C0.214,-0.04 0.248,-0.049 0.281,-0.067C0.314,-0.086 0.341,-0.112 0.362,-0.146L0.382,-0.262L0.289,-0.263C0.23,-0.263 0.181,-0.252 0.144,-0.231C0.107,-0.21 0.086,-0.18 0.082,-0.141C0.079,-0.112 0.087,-0.089 0.105,-0.07C0.123,-0.052 0.147,-0.042 0.178,-0.042Z" style="fill:rgb(0,191,2);fill-rule:nonzero;"/>
            </g>
            <g transform="matrix(58.3333,0,0,58.3333,380.021,0)">
                <path d="M0.227,-0.664L0.204,-0.528L0.31,-0.528L0.301,-0.48L0.195,-0.48L0.137,-0.128L0.136,-0.098C0.136,-0.062 0.152,-0.044 0.185,-0.043C0.195,-0.043 0.21,-0.044 0.232,-0.046L0.229,0.001C0.21,0.007 0.191,0.009 0.171,0.009C0.137,0.008 0.112,-0.004 0.096,-0.027C0.081,-0.05 0.075,-0.084 0.079,-0.128L0.137,-0.48L0.042,-0.48L0.051,-0.528L0.145,-0.528L0.169,-0.664L0.227,-0.664Z" style="fill:rgb(0,191,2);fill-rule:nonzero;"/>
            </g>
            <g transform="matrix(58.3333,0,0,58.3333,398.478,0)">
                <path d="M0.638,-0.711L0.555,-0.23C0.543,-0.155 0.512,-0.096 0.461,-0.053C0.41,-0.009 0.348,0.012 0.274,0.01C0.229,0.009 0.189,-0.001 0.156,-0.021C0.122,-0.042 0.098,-0.07 0.083,-0.106C0.068,-0.143 0.063,-0.184 0.068,-0.229L0.151,-0.711L0.21,-0.711L0.128,-0.229C0.121,-0.174 0.131,-0.129 0.158,-0.095C0.185,-0.061 0.225,-0.043 0.277,-0.041C0.332,-0.039 0.379,-0.054 0.418,-0.086C0.458,-0.119 0.483,-0.163 0.494,-0.221L0.578,-0.711L0.638,-0.711Z" style="fill:rgb(0,191,2);fill-rule:nonzero;"/>
            </g>
            <g transform="matrix(58.3333,0,0,58.3333,435.962,0)">
                <path d="M0.345,-0.479C0.333,-0.482 0.32,-0.483 0.307,-0.483C0.27,-0.483 0.236,-0.472 0.205,-0.449C0.174,-0.427 0.153,-0.398 0.143,-0.363L0.08,-0L0.022,-0L0.114,-0.528L0.171,-0.528L0.154,-0.444C0.173,-0.476 0.196,-0.499 0.223,-0.516C0.251,-0.532 0.28,-0.54 0.313,-0.539C0.324,-0.539 0.338,-0.537 0.353,-0.532L0.345,-0.479Z" style="fill:rgb(0,191,2);fill-rule:nonzero;"/>
            </g>
            <g transform="matrix(58.3333,0,0,58.3333,454.732,0)">
                <path d="M0.232,0.01C0.19,0.009 0.153,-0.003 0.122,-0.026C0.091,-0.049 0.068,-0.08 0.054,-0.119C0.039,-0.159 0.034,-0.202 0.039,-0.248L0.04,-0.264C0.045,-0.313 0.059,-0.359 0.083,-0.404C0.108,-0.448 0.139,-0.481 0.176,-0.505C0.214,-0.528 0.254,-0.539 0.296,-0.538C0.336,-0.537 0.369,-0.527 0.396,-0.506C0.423,-0.485 0.443,-0.456 0.456,-0.419C0.468,-0.382 0.472,-0.341 0.467,-0.296L0.463,-0.26L0.098,-0.26L0.096,-0.249C0.091,-0.213 0.094,-0.179 0.104,-0.147C0.114,-0.114 0.131,-0.089 0.154,-0.07C0.177,-0.051 0.204,-0.041 0.236,-0.04C0.268,-0.039 0.296,-0.045 0.321,-0.058C0.346,-0.071 0.369,-0.089 0.39,-0.11L0.424,-0.083C0.401,-0.052 0.372,-0.029 0.34,-0.013C0.307,0.003 0.271,0.01 0.232,0.01ZM0.293,-0.488C0.251,-0.49 0.213,-0.475 0.18,-0.443C0.146,-0.412 0.121,-0.367 0.104,-0.31L0.411,-0.31L0.412,-0.317C0.418,-0.363 0.41,-0.403 0.388,-0.436C0.366,-0.47 0.334,-0.487 0.293,-0.488Z" style="fill:rgb(0,191,2);fill-rule:nonzero;"/>
            </g>
            <g transform="matrix(58.3333,0,0,58.3333,484.241,0)">
                <path d="M0.457,-0.178C0.465,-0.239 0.432,-0.284 0.359,-0.313L0.266,-0.347L0.235,-0.359C0.143,-0.398 0.1,-0.456 0.107,-0.533C0.11,-0.571 0.123,-0.604 0.147,-0.633C0.171,-0.661 0.202,-0.684 0.241,-0.699C0.28,-0.714 0.321,-0.722 0.365,-0.721C0.407,-0.72 0.444,-0.71 0.477,-0.692C0.51,-0.673 0.535,-0.648 0.552,-0.616C0.568,-0.584 0.574,-0.548 0.571,-0.508L0.511,-0.508C0.515,-0.556 0.504,-0.595 0.477,-0.624C0.45,-0.653 0.411,-0.668 0.362,-0.669C0.31,-0.67 0.266,-0.658 0.23,-0.634C0.193,-0.61 0.172,-0.577 0.167,-0.535C0.163,-0.501 0.173,-0.473 0.197,-0.449C0.22,-0.425 0.262,-0.405 0.321,-0.387C0.397,-0.363 0.449,-0.334 0.479,-0.301C0.508,-0.267 0.521,-0.227 0.517,-0.18C0.514,-0.141 0.5,-0.107 0.476,-0.078C0.452,-0.049 0.421,-0.027 0.381,-0.012C0.341,0.004 0.299,0.011 0.253,0.01C0.208,0.009 0.167,0 0.131,-0.018C0.094,-0.036 0.067,-0.061 0.049,-0.093C0.031,-0.125 0.024,-0.161 0.027,-0.203L0.087,-0.203C0.082,-0.154 0.095,-0.114 0.127,-0.085C0.158,-0.056 0.201,-0.041 0.256,-0.041C0.311,-0.04 0.357,-0.052 0.394,-0.078C0.431,-0.103 0.452,-0.137 0.457,-0.178Z" style="fill:rgb(0,191,2);fill-rule:nonzero;"/>
            </g>
            <g transform="matrix(58.3333,0,0,58.3333,532.092,0)">
                <path d="M0.063,-0L0.146,-0.48L0.062,-0.48L0.07,-0.528L0.155,-0.528L0.165,-0.6C0.173,-0.652 0.193,-0.692 0.224,-0.72C0.256,-0.749 0.295,-0.762 0.342,-0.762C0.361,-0.761 0.382,-0.758 0.406,-0.752L0.396,-0.704C0.377,-0.708 0.36,-0.711 0.343,-0.711C0.311,-0.711 0.284,-0.7 0.262,-0.679C0.241,-0.658 0.228,-0.629 0.222,-0.591L0.213,-0.528L0.335,-0.528L0.327,-0.48L0.205,-0.48L0.122,-0L0.063,-0Z" style="fill:rgb(0,191,2);fill-rule:nonzero;"/>
            </g>
            <g transform="matrix(58.3333,0,0,58.3333,551.119,0)">
                <path d="M0.037,-0.269C0.042,-0.32 0.058,-0.367 0.083,-0.409C0.109,-0.452 0.141,-0.484 0.178,-0.506C0.216,-0.528 0.257,-0.539 0.302,-0.538C0.345,-0.537 0.383,-0.525 0.413,-0.502C0.444,-0.479 0.467,-0.447 0.481,-0.407C0.495,-0.367 0.5,-0.322 0.495,-0.273L0.494,-0.264C0.484,-0.181 0.455,-0.114 0.406,-0.063C0.356,-0.013 0.297,0.011 0.228,0.01C0.169,0.009 0.121,-0.013 0.086,-0.056C0.05,-0.098 0.033,-0.155 0.034,-0.225L0.035,-0.252L0.037,-0.269ZM0.093,-0.252C0.089,-0.214 0.092,-0.178 0.102,-0.145C0.112,-0.113 0.128,-0.087 0.149,-0.068C0.171,-0.05 0.198,-0.04 0.231,-0.039C0.266,-0.038 0.298,-0.047 0.327,-0.066C0.357,-0.084 0.381,-0.111 0.399,-0.145C0.418,-0.178 0.431,-0.216 0.436,-0.257L0.438,-0.273C0.443,-0.336 0.434,-0.387 0.408,-0.427C0.383,-0.467 0.347,-0.487 0.299,-0.488C0.247,-0.49 0.202,-0.47 0.164,-0.428C0.126,-0.386 0.103,-0.331 0.094,-0.261L0.093,-0.252Z" style="fill:rgb(0,191,2);fill-rule:nonzero;"/>
            </g>
            <g transform="matrix(58.3333,0,0,58.3333,583.105,0)">
                <path d="M0.345,-0.479C0.333,-0.482 0.32,-0.483 0.307,-0.483C0.27,-0.483 0.236,-0.472 0.205,-0.449C0.174,-0.427 0.153,-0.398 0.143,-0.363L0.08,-0L0.022,-0L0.114,-0.528L0.171,-0.528L0.154,-0.444C0.173,-0.476 0.196,-0.499 0.223,-0.516C0.251,-0.532 0.28,-0.54 0.313,-0.539C0.324,-0.539 0.338,-0.537 0.353,-0.532L0.345,-0.479Z" style="fill:rgb(0,191,2);fill-rule:nonzero;"/>
            </g>
            <g transform="matrix(58.3333,0,0,58.3333,616.459,0)">
                <path d="M0.167,-0.528L0.151,-0.442C0.198,-0.507 0.258,-0.539 0.33,-0.538C0.367,-0.537 0.398,-0.528 0.423,-0.51C0.447,-0.492 0.462,-0.467 0.468,-0.436C0.492,-0.468 0.52,-0.494 0.552,-0.512C0.585,-0.53 0.619,-0.539 0.657,-0.538C0.707,-0.537 0.745,-0.521 0.769,-0.489C0.793,-0.456 0.803,-0.412 0.799,-0.355L0.798,-0.344L0.74,-0L0.682,-0L0.739,-0.345C0.741,-0.364 0.741,-0.383 0.74,-0.4C0.733,-0.458 0.7,-0.487 0.641,-0.488C0.601,-0.488 0.565,-0.476 0.531,-0.449C0.498,-0.422 0.477,-0.389 0.469,-0.35L0.408,-0L0.35,-0L0.409,-0.35C0.418,-0.439 0.385,-0.486 0.31,-0.488C0.272,-0.488 0.237,-0.477 0.205,-0.453C0.173,-0.429 0.151,-0.399 0.14,-0.363L0.078,-0L0.02,-0L0.111,-0.528L0.167,-0.528Z" style="fill:rgb(0,191,2);fill-rule:nonzero;"/>
            </g>
            <g transform="matrix(58.3333,0,0,58.3333,666.903,0)">
                <path d="M0.351,-0C0.349,-0.012 0.349,-0.025 0.35,-0.037L0.354,-0.074C0.33,-0.047 0.302,-0.027 0.27,-0.012C0.239,0.003 0.205,0.01 0.168,0.01C0.124,0.009 0.088,-0.005 0.06,-0.032C0.032,-0.06 0.02,-0.095 0.022,-0.136C0.025,-0.171 0.037,-0.201 0.058,-0.227C0.08,-0.252 0.11,-0.272 0.149,-0.286C0.189,-0.301 0.233,-0.308 0.282,-0.308L0.39,-0.307L0.398,-0.368C0.402,-0.404 0.395,-0.433 0.375,-0.455C0.355,-0.476 0.327,-0.488 0.289,-0.489C0.25,-0.49 0.217,-0.48 0.188,-0.461C0.16,-0.441 0.142,-0.415 0.135,-0.383L0.078,-0.383C0.084,-0.429 0.108,-0.467 0.149,-0.496C0.19,-0.525 0.238,-0.539 0.294,-0.539C0.349,-0.537 0.391,-0.521 0.42,-0.489C0.45,-0.458 0.462,-0.417 0.456,-0.366L0.412,-0.101L0.408,-0.058C0.407,-0.041 0.409,-0.023 0.412,-0.006L0.411,-0L0.351,-0ZM0.178,-0.042C0.214,-0.04 0.248,-0.049 0.281,-0.067C0.314,-0.086 0.341,-0.112 0.362,-0.146L0.382,-0.262L0.289,-0.263C0.23,-0.263 0.181,-0.252 0.144,-0.231C0.107,-0.21 0.086,-0.18 0.082,-0.141C0.079,-0.112 0.087,-0.089 0.105,-0.07C0.123,-0.052 0.147,-0.042 0.178,-0.042Z" style="fill:rgb(0,191,2);fill-rule:nonzero;"/>
            </g>
            <g transform="matrix(58.3333,0,0,58.3333,697.493,0)">
                <path d="M0.227,-0.039C0.265,-0.038 0.299,-0.048 0.329,-0.071C0.358,-0.094 0.378,-0.124 0.388,-0.163L0.443,-0.163C0.433,-0.11 0.407,-0.068 0.366,-0.036C0.324,-0.004 0.277,0.012 0.224,0.01C0.181,0.009 0.146,-0.002 0.117,-0.025C0.088,-0.047 0.067,-0.078 0.054,-0.118C0.041,-0.158 0.037,-0.203 0.042,-0.252L0.043,-0.273C0.047,-0.308 0.056,-0.341 0.069,-0.373C0.081,-0.405 0.099,-0.434 0.12,-0.459C0.142,-0.484 0.167,-0.503 0.197,-0.518C0.227,-0.532 0.26,-0.539 0.298,-0.538C0.352,-0.537 0.395,-0.519 0.427,-0.483C0.459,-0.448 0.474,-0.404 0.472,-0.35L0.417,-0.35C0.417,-0.391 0.407,-0.424 0.385,-0.449C0.363,-0.474 0.333,-0.487 0.295,-0.488C0.255,-0.49 0.219,-0.478 0.188,-0.453C0.158,-0.428 0.134,-0.393 0.119,-0.348C0.103,-0.303 0.096,-0.255 0.097,-0.204C0.098,-0.152 0.109,-0.111 0.132,-0.083C0.154,-0.055 0.186,-0.04 0.227,-0.039Z" style="fill:rgb(0,191,2);fill-rule:nonzero;"/>
            </g>
            <g transform="matrix(58.3333,0,0,58.3333,726.917,0)">
                <path d="M0.153,-0.439C0.204,-0.506 0.264,-0.539 0.333,-0.538C0.383,-0.537 0.42,-0.519 0.443,-0.485C0.466,-0.451 0.475,-0.404 0.468,-0.344L0.41,-0L0.353,-0L0.41,-0.345C0.412,-0.363 0.412,-0.381 0.411,-0.398C0.406,-0.456 0.374,-0.486 0.316,-0.488C0.282,-0.488 0.25,-0.478 0.221,-0.457C0.191,-0.436 0.165,-0.405 0.143,-0.362L0.08,-0L0.022,-0L0.153,-0.75L0.21,-0.75L0.153,-0.439Z" style="fill:rgb(0,191,2);fill-rule:nonzero;"/>
            </g>
            <g transform="matrix(58.3333,0,0,58.3333,758.248,0)">
                <path d="M0.087,-0L0.029,-0L0.121,-0.528L0.179,-0.528L0.087,-0ZM0.137,-0.681C0.139,-0.702 0.153,-0.716 0.179,-0.721C0.192,-0.719 0.201,-0.715 0.206,-0.709C0.212,-0.704 0.215,-0.694 0.217,-0.681C0.214,-0.669 0.209,-0.66 0.203,-0.654C0.196,-0.648 0.187,-0.644 0.175,-0.642C0.148,-0.646 0.136,-0.659 0.137,-0.681Z" style="fill:rgb(0,191,2);fill-rule:nonzero;"/>
            </g>
            <g transform="matrix(58.3333,0,0,58.3333,771.208,0)">
                <path d="M0.17,-0.528L0.152,-0.438C0.176,-0.471 0.203,-0.496 0.234,-0.513C0.264,-0.53 0.297,-0.539 0.333,-0.538C0.383,-0.537 0.42,-0.519 0.443,-0.485C0.466,-0.451 0.475,-0.404 0.468,-0.344L0.41,-0L0.353,-0L0.41,-0.345C0.412,-0.363 0.412,-0.381 0.411,-0.398C0.406,-0.456 0.374,-0.486 0.316,-0.488C0.282,-0.488 0.25,-0.478 0.221,-0.457C0.191,-0.436 0.165,-0.405 0.143,-0.362L0.08,-0L0.022,-0L0.114,-0.528L0.17,-0.528Z" style="fill:rgb(0,191,2);fill-rule:nonzero;"/>
            </g>
            <g transform="matrix(58.3333,0,0,58.3333,802.568,0)">
                <path d="M0.232,0.01C0.19,0.009 0.153,-0.003 0.122,-0.026C0.091,-0.049 0.068,-0.08 0.054,-0.119C0.039,-0.159 0.034,-0.202 0.039,-0.248L0.04,-0.264C0.045,-0.313 0.059,-0.359 0.083,-0.404C0.108,-0.448 0.139,-0.481 0.176,-0.505C0.214,-0.528 0.254,-0.539 0.296,-0.538C0.336,-0.537 0.369,-0.527 0.396,-0.506C0.423,-0.485 0.443,-0.456 0.456,-0.419C0.468,-0.382 0.472,-0.341 0.467,-0.296L0.463,-0.26L0.098,-0.26L0.096,-0.249C0.091,-0.213 0.094,-0.179 0.104,-0.147C0.114,-0.114 0.131,-0.089 0.154,-0.07C0.177,-0.051 0.204,-0.041 0.236,-0.04C0.268,-0.039 0.296,-0.045 0.321,-0.058C0.346,-0.071 0.369,-0.089 0.39,-0.11L0.424,-0.083C0.401,-0.052 0.372,-0.029 0.34,-0.013C0.307,0.003 0.271,0.01 0.232,0.01ZM0.293,-0.488C0.251,-0.49 0.213,-0.475 0.18,-0.443C0.146,-0.412 0.121,-0.367 0.104,-0.31L0.411,-0.31L0.412,-0.317C0.418,-0.363 0.41,-0.403 0.388,-0.436C0.366,-0.47 0.334,-0.487 0.293,-0.488Z" style="fill:rgb(0,191,2);fill-rule:nonzero;"/>
            </g>
            <g transform="matrix(58.3333,0,0,58.3333,846.118,0)">
                <path d="M0.087,-0L0.029,-0L0.159,-0.75L0.218,-0.75L0.087,-0Z" style="fill:rgb(0,191,2);fill-rule:nonzero;"/>
            </g>
            <g transform="matrix(58.3333,0,0,58.3333,859.078,0)">
                <path d="M0.232,0.01C0.19,0.009 0.153,-0.003 0.122,-0.026C0.091,-0.049 0.068,-0.08 0.054,-0.119C0.039,-0.159 0.034,-0.202 0.039,-0.248L0.04,-0.264C0.045,-0.313 0.059,-0.359 0.083,-0.404C0.108,-0.448 0.139,-0.481 0.176,-0.505C0.214,-0.528 0.254,-0.539 0.296,-0.538C0.336,-0.537 0.369,-0.527 0.396,-0.506C0.423,-0.485 0.443,-0.456 0.456,-0.419C0.468,-0.382 0.472,-0.341 0.467,-0.296L0.463,-0.26L0.098,-0.26L0.096,-0.249C0.091,-0.213 0.094,-0.179 0.104,-0.147C0.114,-0.114 0.131,-0.089 0.154,-0.07C0.177,-0.051 0.204,-0.041 0.236,-0.04C0.268,-0.039 0.296,-0.045 0.321,-0.058C0.346,-0.071 0.369,-0.089 0.39,-0.11L0.424,-0.083C0.401,-0.052 0.372,-0.029 0.34,-0.013C0.307,0.003 0.271,0.01 0.232,0.01ZM0.293,-0.488C0.251,-0.49 0.213,-0.475 0.18,-0.443C0.146,-0.412 0.121,-0.367 0.104,-0.31L0.411,-0.31L0.412,-0.317C0.418,-0.363 0.41,-0.403 0.388,-0.436C0.366,-0.47 0.334,-0.487 0.293,-0.488Z" style="fill:rgb(0,191,2);fill-rule:nonzero;"/>
            </g>
            <g transform="matrix(58.3333,0,0,58.3333,888.586,0)">
                <path d="M0.351,-0C0.349,-0.012 0.349,-0.025 0.35,-0.037L0.354,-0.074C0.33,-0.047 0.302,-0.027 0.27,-0.012C0.239,0.003 0.205,0.01 0.168,0.01C0.124,0.009 0.088,-0.005 0.06,-0.032C0.032,-0.06 0.02,-0.095 0.022,-0.136C0.025,-0.171 0.037,-0.201 0.058,-0.227C0.08,-0.252 0.11,-0.272 0.149,-0.286C0.189,-0.301 0.233,-0.308 0.282,-0.308L0.39,-0.307L0.398,-0.368C0.402,-0.404 0.395,-0.433 0.375,-0.455C0.355,-0.476 0.327,-0.488 0.289,-0.489C0.25,-0.49 0.217,-0.48 0.188,-0.461C0.16,-0.441 0.142,-0.415 0.135,-0.383L0.078,-0.383C0.084,-0.429 0.108,-0.467 0.149,-0.496C0.19,-0.525 0.238,-0.539 0.294,-0.539C0.349,-0.537 0.391,-0.521 0.42,-0.489C0.45,-0.458 0.462,-0.417 0.456,-0.366L0.412,-0.101L0.408,-0.058C0.407,-0.041 0.409,-0.023 0.412,-0.006L0.411,-0L0.351,-0ZM0.178,-0.042C0.214,-0.04 0.248,-0.049 0.281,-0.067C0.314,-0.086 0.341,-0.112 0.362,-0.146L0.382,-0.262L0.289,-0.263C0.23,-0.263 0.181,-0.252 0.144,-0.231C0.107,-0.21 0.086,-0.18 0.082,-0.141C0.079,-0.112 0.087,-0.089 0.105,-0.07C0.123,-0.052 0.147,-0.042 0.178,-0.042Z" style="fill:rgb(0,191,2);fill-rule:nonzero;"/>
            </g>
            <g transform="matrix(58.3333,0,0,58.3333,919.177,0)">
                <path d="M0.345,-0.479C0.333,-0.482 0.32,-0.483 0.307,-0.483C0.27,-0.483 0.236,-0.472 0.205,-0.449C0.174,-0.427 0.153,-0.398 0.143,-0.363L0.08,-0L0.022,-0L0.114,-0.528L0.171,-0.528L0.154,-0.444C0.173,-0.476 0.196,-0.499 0.223,-0.516C0.251,-0.532 0.28,-0.54 0.313,-0.539C0.324,-0.539 0.338,-0.537 0.353,-0.532L0.345,-0.479Z" style="fill:rgb(0,191,2);fill-rule:nonzero;"/>
            </g>
            <g transform="matrix(58.3333,0,0,58.3333,938.489,0)">
                <path d="M0.17,-0.528L0.152,-0.438C0.176,-0.471 0.203,-0.496 0.234,-0.513C0.264,-0.53 0.297,-0.539 0.333,-0.538C0.383,-0.537 0.42,-0.519 0.443,-0.485C0.466,-0.451 0.475,-0.404 0.468,-0.344L0.41,-0L0.353,-0L0.41,-0.345C0.412,-0.363 0.412,-0.381 0.411,-0.398C0.406,-0.456 0.374,-0.486 0.316,-0.488C0.282,-0.488 0.25,-0.478 0.221,-0.457C0.191,-0.436 0.165,-0.405 0.143,-0.362L0.08,-0L0.022,-0L0.114,-0.528L0.17,-0.528Z" style="fill:rgb(0,191,2);fill-rule:nonzero;"/>
            </g>
            <g transform="matrix(58.3333,0,0,58.3333,969.849,0)">
                <path d="M0.087,-0L0.029,-0L0.121,-0.528L0.179,-0.528L0.087,-0ZM0.137,-0.681C0.139,-0.702 0.153,-0.716 0.179,-0.721C0.192,-0.719 0.201,-0.715 0.206,-0.709C0.212,-0.704 0.215,-0.694 0.217,-0.681C0.214,-0.669 0.209,-0.66 0.203,-0.654C0.196,-0.648 0.187,-0.644 0.175,-0.642C0.148,-0.646 0.136,-0.659 0.137,-0.681Z" style="fill:rgb(0,191,2);fill-rule:nonzero;"/>
            </g>
            <g transform="matrix(58.3333,0,0,58.3333,982.808,0)">
                <path d="M0.17,-0.528L0.152,-0.438C0.176,-0.471 0.203,-0.496 0.234,-0.513C0.264,-0.53 0.297,-0.539 0.333,-0.538C0.383,-0.537 0.42,-0.519 0.443,-0.485C0.466,-0.451 0.475,-0.404 0.468,-0.344L0.41,-0L0.353,-0L0.41,-0.345C0.412,-0.363 0.412,-0.381 0.411,-0.398C0.406,-0.456 0.374,-0.486 0.316,-0.488C0.282,-0.488 0.25,-0.478 0.221,-0.457C0.191,-0.436 0.165,-0.405 0.143,-0.362L0.08,-0L0.022,-0L0.114,-0.528L0.17,-0.528Z" style="fill:rgb(0,191,2);fill-rule:nonzero;"/>
            </g>
            <g transform="matrix(58.3333,0,0,58.3333,1014.17,0)">
                <path d="M0.286,-0.539C0.317,-0.538 0.346,-0.53 0.372,-0.516C0.398,-0.502 0.419,-0.481 0.434,-0.452L0.452,-0.528L0.506,-0.528L0.417,-0.009C0.411,0.035 0.397,0.074 0.375,0.108C0.353,0.142 0.325,0.168 0.291,0.186C0.257,0.204 0.219,0.212 0.178,0.211C0.145,0.21 0.113,0.202 0.083,0.186C0.052,0.17 0.027,0.147 0.009,0.118L0.045,0.084C0.078,0.134 0.122,0.16 0.176,0.162C0.224,0.163 0.265,0.148 0.297,0.118C0.33,0.087 0.35,0.046 0.358,-0.006L0.371,-0.068C0.324,-0.014 0.268,0.012 0.202,0.01C0.152,0.008 0.114,-0.01 0.086,-0.047C0.059,-0.084 0.044,-0.134 0.043,-0.197C0.041,-0.255 0.051,-0.313 0.072,-0.37C0.094,-0.427 0.123,-0.469 0.16,-0.498C0.197,-0.526 0.239,-0.54 0.286,-0.539ZM0.104,-0.255L0.101,-0.21C0.1,-0.157 0.109,-0.115 0.129,-0.086C0.148,-0.057 0.177,-0.042 0.215,-0.041C0.248,-0.039 0.278,-0.047 0.307,-0.063C0.335,-0.08 0.359,-0.105 0.38,-0.137L0.421,-0.384C0.413,-0.415 0.397,-0.44 0.376,-0.459C0.354,-0.477 0.326,-0.487 0.292,-0.488C0.243,-0.489 0.201,-0.47 0.169,-0.43C0.136,-0.39 0.114,-0.332 0.104,-0.255Z" style="fill:rgb(0,191,2);fill-rule:nonzero;"/>
            </g>
        </g>
        <g transform="matrix(0.594863,0,0,0.594863,-124.259,150.547)">
            <path d="M907.682,878.084C911.849,869.647 922.284,863.659 934.483,863.659C950.345,863.659 963.223,873.782 963.223,886.251C963.223,898.719 950.345,908.842 934.483,908.842C918.621,908.842 905.743,898.719 905.743,886.251C905.743,884.819 905.913,883.419 906.237,882.063C904.539,881.512 902.644,881.19 900.662,881.19C898.68,881.19 896.786,881.512 895.087,882.063C895.412,883.419 895.581,884.819 895.581,886.251C895.581,898.719 882.703,908.842 866.841,908.842C850.979,908.842 838.102,898.719 838.102,886.251C838.102,873.782 850.979,863.659 866.841,863.659C879.041,863.659 889.475,869.647 893.643,878.084C895.611,876.855 898.038,876.13 900.662,876.13C903.287,876.13 905.714,876.855 907.682,878.084Z"/>
        </g>
    </g>
</svg>
