<?xml version="1.0" standalone="no"?>
<!DOCTYPE svg PUBLIC "-//W3C//DTD SVG 1.1//EN" "http://www.w3.org/Graphics/SVG/1.1/DTD/svg11.dtd">
<!--Generator: Xara Designer (www.xara.com), SVG filter version: 6.4.0.3-->
<svg fill="none" fill-rule="evenodd" stroke="black" stroke-width="0.501" stroke-linejoin="bevel" stroke-miterlimit="10" font-family="Times New Roman" font-size="16" style="font-variant-ligatures:none" xmlns:xlink="http://www.w3.org/1999/xlink" xmlns="http://www.w3.org/2000/svg" version="1.1" overflow="visible" width="258.02pt" height="60.49pt" viewBox="115.453 -99.652 258.02 60.49">
 <defs>
	</defs>
 <g id="Layer 1" transform="scale(1 -1)">
  <text xml:space="preserve" transform="translate(111.286 62.074) scale(1 -1)" kerning="auto" font-size="80" stroke-linejoin="round" stroke-linecap="round" stroke-width="0.25" stroke="none"><tspan x="0" y="0" font-family="Calibri Light" fill="#000000">ᴍᴏʀғᴇᴜs</tspan></text>
  <path d="M 175.971,83.365 C 175.971,84.786 177.665,85.94 179.75,85.94 C 181.313,85.94 182.656,85.29 183.23,84.368 L 183.204,84.42 C 184.158,84.917 185.111,85.007 186.041,84.34 C 186.606,85.277 187.96,85.94 189.54,85.94 C 191.625,85.94 193.319,84.786 193.319,83.365 C 193.319,81.945 191.625,80.791 189.54,80.791 C 187.455,80.791 185.761,81.945 185.761,83.365 C 185.761,83.692 185.85,84.004 186.013,84.291 L 185.981,84.247 C 185.093,84.886 184.187,84.807 183.258,84.322 C 183.433,84.026 183.529,83.703 183.529,83.365 C 183.529,81.945 181.835,80.791 179.75,80.791 C 177.665,80.791 175.971,81.945 175.971,83.365 Z" stroke-linejoin="round" stroke-linecap="round" stroke="#000000" fill="#000000" stroke-width="0.553" marker-start="none" marker-end="none"/>
  <text xml:space="preserve" transform="translate(125.879 41.657) scale(1 -1)" kerning="auto" font-family="Calibri Light" stroke-linejoin="round" stroke-linecap="round" stroke="none" fill="#00bf02" stroke-width="0.25" font-size="14"><tspan x="0" y="0">MOleculaR FEatUreS for machine learning</tspan></text>
 </g>
</svg>
