<?xml version="1.0" standalone="no"?>
<!DOCTYPE svg PUBLIC "-//W3C//DTD SVG 1.1//EN" "http://www.w3.org/Graphics/SVG/1.1/DTD/svg11.dtd">
<!--Generator: Xara Designer (www.xara.com), SVG filter version: 6.3.0.23-->
<svg fill="none" fill-rule="evenodd" stroke="black" stroke-width="0.501" stroke-linejoin="bevel" stroke-miterlimit="10" font-family="Times New Roman" font-size="16" style="font-variant-ligatures:none" xmlns:xlink="http://www.w3.org/1999/xlink" xmlns="http://www.w3.org/2000/svg" version="1.1" overflow="visible" width="110.756pt" height="28.347pt" viewBox="199.46 -185.166 110.756 28.347">
 <defs>
	</defs>
 <g id="Layer 1" transform="scale(1 -1)">
  <text xml:space="preserve" transform="translate(197.015 157.445) scale(1 -1)" kerning="auto" font-family="Bodoni MT" stroke="none" stroke-width="0.369" stroke-linecap="round" stroke-linejoin="round" fill="#000000"><tspan x="0" y="0" font-size="41.378" style="-moz-font-feature-settings:'liga' on,'dlig' on;-ms-font-feature-settings:'liga' on,'dlig' on;-webkit-font-feature-settings:'liga' on,'dlig' on;font-feature-settings:'liga' on,'dlig' on;font-variant-ligatures: common-ligatures discretionary-ligatures no-historical-ligatures">Steri</tspan></text>
  <path d="M 305.491,169.811 L 305.491,172.173 C 305.491,172.494 305.374,172.77 305.14,173.004 C 304.907,173.237 304.63,173.354 304.31,173.354 L 298.404,173.354 L 298.404,179.26 C 298.404,179.58 298.288,179.857 298.054,180.09 C 297.82,180.324 297.543,180.441 297.223,180.441 L 294.861,180.441 C 294.541,180.441 294.264,180.324 294.031,180.09 C 293.797,179.857 293.68,179.58 293.68,179.26 L 293.68,173.354 L 287.774,173.354 C 287.454,173.354 287.177,173.237 286.944,173.004 C 286.71,172.77 286.593,172.494 286.593,172.173 L 286.593,169.811 C 286.593,169.491 286.71,169.214 286.944,168.981 C 287.177,168.747 287.454,168.63 287.774,168.63 L 293.68,168.63 L 293.68,162.724 C 293.68,162.404 293.797,162.127 294.031,161.894 C 294.264,161.66 294.541,161.543 294.861,161.543 L 297.223,161.543 C 297.543,161.543 297.82,161.66 298.054,161.894 C 298.288,162.127 298.404,162.404 298.404,162.724 L 298.404,168.63 L 304.31,168.63 C 304.63,168.63 304.907,168.747 305.14,168.981 C 305.374,169.214 305.491,169.491 305.491,169.811 Z M 310.216,179.851 L 310.216,162.134 C 310.216,160.67 309.696,159.417 308.656,158.378 C 307.617,157.338 306.364,156.819 304.901,156.819 L 287.183,156.819 C 285.72,156.819 284.468,157.338 283.428,158.378 C 282.388,159.417 281.869,160.67 281.869,162.134 L 281.869,179.851 C 281.869,181.315 282.388,182.567 283.428,183.606 C 284.468,184.646 285.72,185.166 287.183,185.166 L 304.901,185.166 C 306.364,185.166 307.617,184.646 308.656,183.606 C 309.696,182.567 310.216,181.315 310.216,179.851 Z" fill="#0083f9" fill-rule="nonzero" stroke-linejoin="round" stroke-linecap="round" stroke="none" marker-start="none" marker-end="none"/>
 </g>
 <g id="Layer_1" transform="scale(1 -1)"/>
</svg>
