<?xml version="1.0" standalone="no"?>
<!DOCTYPE svg PUBLIC "-//W3C//DTD SVG 1.1//EN" "http://www.w3.org/Graphics/SVG/1.1/DTD/svg11.dtd">
<!--Generator: Xara Designer (www.xara.com), SVG filter version: 6.3.0.31-->
<svg fill="none" fill-rule="evenodd" stroke="black" stroke-width="0.501" stroke-linejoin="bevel" stroke-miterlimit="10" font-family="Times New Roman" font-size="16" style="font-variant-ligatures:none" xmlns:xlink="http://www.w3.org/1999/xlink" xmlns="http://www.w3.org/2000/svg" version="1.1" overflow="visible" width="312.313pt" height="77.541pt" viewBox="74.507 -445.86 312.313 77.541">
 <defs>
	</defs>
 <g id="Layer 1" transform="scale(1 -1)">
  <text xml:space="preserve" transform="translate(70.697 392.527) scale(1 -1)" kerning="auto" stroke="none" fill="#000000" stroke-width="0.25" stroke-linejoin="round" stroke-linecap="round" font-family="White Rabbit" font-size="80"><tspan x="0" y="0">MORFEUS</tspan></text>
  <path d="M 130.258,419.453 C 130.258,420.874 131.952,422.028 134.037,422.028 C 135.6,422.028 136.943,421.378 137.517,420.456 L 137.491,420.508 C 138.445,421.005 139.398,421.095 140.328,420.428 C 140.893,421.365 142.247,422.028 143.827,422.028 C 145.912,422.028 147.606,420.874 147.606,419.453 C 147.606,418.033 145.912,416.879 143.827,416.879 C 141.742,416.879 140.048,418.033 140.048,419.453 C 140.048,419.78 140.137,420.092 140.3,420.379 L 140.268,420.335 C 139.38,420.974 138.474,420.895 137.545,420.41 C 137.72,420.114 137.816,419.791 137.816,419.453 C 137.816,418.033 136.122,416.879 134.037,416.879 C 131.952,416.879 130.258,418.033 130.258,419.453 Z" stroke="#000000" fill="#000000" stroke-width="0.553" stroke-linejoin="round" stroke-linecap="round" marker-start="none" marker-end="none"/>
  <text xml:space="preserve" transform="translate(73.84 369.652) scale(1 -1)" kerning="auto" stroke="none" fill="#00bf02" stroke-width="0.25" stroke-linejoin="round" stroke-linecap="round" font-family="White Rabbit" font-size="14"><tspan x="0" y="0">MOleculaR FEatUreS for machine learning</tspan></text>
 </g>
</svg>
