<?xml version="1.0" encoding="UTF-8"?><svg xmlns="http://www.w3.org/2000/svg" xmlns:xlink="http://www.w3.org/1999/xlink" fill-opacity="1" color-rendering="auto" color-interpolation="auto" text-rendering="auto" stroke="black" stroke-linecap="square" width="289" stroke-miterlimit="10" shape-rendering="auto" stroke-opacity="1" fill="black" stroke-dasharray="none" font-weight="normal" stroke-width="1" height="253" font-family="'Dialog'" font-style="normal" stroke-linejoin="miter" font-size="12px" stroke-dashoffset="0" image-rendering="auto">
  <!--Generated by ySVG 2.5-->
  <defs id="genericDefs"/>
  <g>
    <defs id="defs1">
      <clipPath clipPathUnits="userSpaceOnUse" id="clipPath1">
        <path d="M0 0 L289 0 L289 253 L0 253 L0 0 Z"/>
      </clipPath>
      <clipPath clipPathUnits="userSpaceOnUse" id="clipPath2">
        <path d="M5 -15 L294 -15 L294 238 L5 238 L5 -15 Z"/>
      </clipPath>
      <clipPath clipPathUnits="userSpaceOnUse" id="clipPath3">
        <path d="M3 -17 L292 -17 L292 236 L3 236 L3 -17 Z"/>
      </clipPath>
    </defs>
    <g fill="white" text-rendering="geometricPrecision" shape-rendering="geometricPrecision" transform="translate(-5,15)" stroke="white">
      <rect x="5" width="289" height="253" y="-15" clip-path="url(#clipPath2)" stroke="none"/>
    </g>
    <g fill="rgb(179,166,145)" text-rendering="geometricPrecision" shape-rendering="geometricPrecision" transform="matrix(1,0,0,1,-5,15) translate(2,2)" stroke="rgb(179,166,145)">
      <rect x="20.0002" width="57.3535" height="30" y="63" clip-path="url(#clipPath3)" stroke="none"/>
    </g>
    <g fill="white" text-rendering="geometricPrecision" shape-rendering="geometricPrecision" transform="matrix(1,0,0,1,-5,15)" stroke="white">
      <rect x="20.0002" width="57.3535" height="30" y="63" clip-path="url(#clipPath2)" stroke="none"/>
    </g>
    <g text-rendering="geometricPrecision" stroke-miterlimit="1.45" shape-rendering="geometricPrecision" transform="matrix(1,0,0,1,-5,15)" stroke-linecap="butt">
      <rect fill="none" x="20.0002" width="57.3535" height="30" y="63" clip-path="url(#clipPath2)"/>
      <text x="26.0364" xml:space="preserve" y="82.5352" clip-path="url(#clipPath2)" font-family="sans-serif" stroke="none">Hessian</text>
    </g>
    <g fill="rgb(179,166,145)" text-rendering="geometricPrecision" shape-rendering="geometricPrecision" transform="matrix(1,0,0,1,-5,15) translate(2,2)" stroke="rgb(179,166,145)">
      <rect x="30.5024" width="72.6992" height="30" y="127.7012" clip-path="url(#clipPath3)" stroke="none"/>
    </g>
    <g fill="rgb(153,204,255)" text-rendering="geometricPrecision" shape-rendering="geometricPrecision" transform="matrix(1,0,0,1,-5,15)" stroke="rgb(153,204,255)">
      <rect x="30.5024" width="72.6992" height="30" y="127.7012" clip-path="url(#clipPath2)" stroke="none"/>
    </g>
    <g text-rendering="geometricPrecision" stroke-miterlimit="1.45" shape-rendering="geometricPrecision" transform="matrix(1,0,0,1,-5,15)" stroke-linecap="butt">
      <rect fill="none" x="30.5024" width="72.6992" height="30" y="127.7012" clip-path="url(#clipPath2)"/>
      <text x="35.185" xml:space="preserve" y="140.1699" clip-path="url(#clipPath2)" font-family="sans-serif" stroke="none">Local force</text>
      <text x="38.727" xml:space="preserve" y="154.3027" clip-path="url(#clipPath2)" font-family="sans-serif" stroke="none">constants</text>
    </g>
    <g fill="rgb(179,166,145)" text-rendering="geometricPrecision" shape-rendering="geometricPrecision" transform="matrix(1,0,0,1,-5,15) translate(2,2)" stroke="rgb(179,166,145)">
      <rect x="113.1824" width="108.0605" height="30" y="190.7012" clip-path="url(#clipPath3)" stroke="none"/>
    </g>
    <g fill="rgb(153,204,255)" text-rendering="geometricPrecision" shape-rendering="geometricPrecision" transform="matrix(1,0,0,1,-5,15)" stroke="rgb(153,204,255)">
      <rect x="113.1824" width="108.0605" height="30" y="190.7012" clip-path="url(#clipPath2)" stroke="none"/>
    </g>
    <g text-rendering="geometricPrecision" stroke-miterlimit="1.45" shape-rendering="geometricPrecision" transform="matrix(1,0,0,1,-5,15)" stroke-linecap="butt">
      <rect fill="none" x="113.1824" width="108.0605" height="30" y="190.7012" clip-path="url(#clipPath2)"/>
      <text x="116.5291" xml:space="preserve" y="210.2363" clip-path="url(#clipPath2)" font-family="sans-serif" stroke="none">Local frequencies</text>
    </g>
    <g fill="rgb(179,166,145)" text-rendering="geometricPrecision" shape-rendering="geometricPrecision" transform="matrix(1,0,0,1,-5,15) translate(2,2)" stroke="rgb(179,166,145)">
      <rect x="46.3193" width="78.7051" height="30" y="0" clip-path="url(#clipPath3)" stroke="none"/>
    </g>
    <g fill="white" text-rendering="geometricPrecision" shape-rendering="geometricPrecision" transform="matrix(1,0,0,1,-5,15)" stroke="white">
      <rect x="46.3193" width="78.7051" height="30" y="0" clip-path="url(#clipPath2)" stroke="none"/>
    </g>
    <g text-rendering="geometricPrecision" stroke-miterlimit="1.45" shape-rendering="geometricPrecision" transform="matrix(1,0,0,1,-5,15)" stroke-linecap="butt">
      <rect fill="none" x="46.3193" width="78.7051" height="30" y="0" clip-path="url(#clipPath2)"/>
      <text x="50.5009" xml:space="preserve" y="19.5352" clip-path="url(#clipPath2)" font-family="sans-serif" stroke="none">Coordinates</text>
    </g>
    <g fill="rgb(179,166,145)" text-rendering="geometricPrecision" shape-rendering="geometricPrecision" transform="matrix(1,0,0,1,-5,15) translate(2,2)" stroke="rgb(179,166,145)">
      <rect x="157.0246" width="119.3984" height="30" y="0" clip-path="url(#clipPath3)" stroke="none"/>
    </g>
    <g fill="white" text-rendering="geometricPrecision" shape-rendering="geometricPrecision" transform="matrix(1,0,0,1,-5,15)" stroke="white">
      <rect x="157.0246" width="119.3984" height="30" y="0" clip-path="url(#clipPath2)" stroke="none"/>
    </g>
    <g text-rendering="geometricPrecision" stroke-miterlimit="1.45" shape-rendering="geometricPrecision" transform="matrix(1,0,0,1,-5,15)" stroke-linecap="butt">
      <rect fill="none" x="157.0246" width="119.3984" height="30" y="0" clip-path="url(#clipPath2)"/>
      <text x="158.467" xml:space="preserve" y="19.5352" clip-path="url(#clipPath2)" font-family="sans-serif" stroke="none">Internal coordinates</text>
    </g>
    <g fill="rgb(179,166,145)" text-rendering="geometricPrecision" shape-rendering="geometricPrecision" transform="matrix(1,0,0,1,-5,15) translate(2,2)" stroke="rgb(179,166,145)">
      <rect x="173.2211" width="58.0039" height="30" y="63" clip-path="url(#clipPath3)" stroke="none"/>
    </g>
    <g fill="white" text-rendering="geometricPrecision" shape-rendering="geometricPrecision" transform="matrix(1,0,0,1,-5,15)" stroke="white">
      <rect x="173.2211" width="58.0039" height="30" y="63" clip-path="url(#clipPath2)" stroke="none"/>
    </g>
    <g text-rendering="geometricPrecision" stroke-miterlimit="1.45" shape-rendering="geometricPrecision" transform="matrix(1,0,0,1,-5,15)" stroke-linecap="butt">
      <rect fill="none" x="173.2211" width="58.0039" height="30" y="63" clip-path="url(#clipPath2)"/>
      <text x="177.8451" xml:space="preserve" y="82.5352" clip-path="url(#clipPath2)" font-family="sans-serif" stroke="none">B matrix</text>
    </g>
    <g fill="rgb(179,166,145)" text-rendering="geometricPrecision" shape-rendering="geometricPrecision" transform="matrix(1,0,0,1,-5,15) translate(2,2)" stroke="rgb(179,166,145)">
      <rect x="135.202" width="64.0215" height="30" y="127.7012" clip-path="url(#clipPath3)" stroke="none"/>
    </g>
    <g fill="white" text-rendering="geometricPrecision" shape-rendering="geometricPrecision" transform="matrix(1,0,0,1,-5,15)" stroke="white">
      <rect x="135.202" width="64.0215" height="30" y="127.7012" clip-path="url(#clipPath2)" stroke="none"/>
    </g>
    <g text-rendering="geometricPrecision" stroke-miterlimit="1.45" shape-rendering="geometricPrecision" transform="matrix(1,0,0,1,-5,15)" stroke-linecap="butt">
      <rect fill="none" x="135.202" width="64.0215" height="30" y="127.7012" clip-path="url(#clipPath2)"/>
      <text x="140.9129" xml:space="preserve" y="147.2363" clip-path="url(#clipPath2)" font-family="sans-serif" stroke="none">Elements</text>
      <path fill="none" d="M48.677 93 L48.6771 119.6673" clip-path="url(#clipPath2)"/>
      <path d="M48.6772 127.6673 L53.6771 115.6673 L48.6771 118.6673 L43.6771 115.6673 Z" clip-path="url(#clipPath2)" stroke="none"/>
      <path fill="none" d="M66.852 157.7012 L66.852 175.2012 L131.1925 175.2012 L131.1925 182.6709" clip-path="url(#clipPath2)"/>
      <path d="M131.1925 190.6709 L136.1925 178.6709 L131.1925 181.6709 L126.1925 178.6709 Z" clip-path="url(#clipPath2)" stroke="none"/>
      <path fill="none" d="M216.7238 30 L216.724 54.9678" clip-path="url(#clipPath2)"/>
      <path d="M216.724 62.9678 L221.7239 50.9677 L216.724 53.9678 L211.7239 50.9678 Z" clip-path="url(#clipPath2)" stroke="none"/>
      <path fill="none" d="M85.6718 30 L85.6718 47.5 L187.722 47.5 L187.722 54.9697" clip-path="url(#clipPath2)"/>
      <path d="M187.722 62.9697 L192.722 50.9697 L187.722 53.9697 L182.722 50.9697 Z" clip-path="url(#clipPath2)" stroke="none"/>
      <path fill="none" d="M216.724 93 L216.7238 175.2012 L203.2329 175.2012 L203.2329 182.6709" clip-path="url(#clipPath2)"/>
      <path d="M203.2329 190.6709 L208.2329 178.6709 L203.2329 181.6709 L198.2329 178.6709 Z" clip-path="url(#clipPath2)" stroke="none"/>
      <path fill="none" d="M187.722 93 L187.722 110.5 L85.0268 110.5 L85.0268 119.6676" clip-path="url(#clipPath2)"/>
      <path d="M85.0268 127.6676 L90.0268 115.6676 L85.0268 118.6676 L80.0268 115.6676 Z" clip-path="url(#clipPath2)" stroke="none"/>
      <path fill="none" d="M167.2127 157.7012 L167.2127 182.6689" clip-path="url(#clipPath2)"/>
      <path d="M167.2127 190.6689 L172.2127 178.6689 L167.2127 181.6689 L162.2127 178.6689 Z" clip-path="url(#clipPath2)" stroke="none"/>
    </g>
  </g>
</svg>
