<svg viewBox="0 0 2060 1712" preserveAspectRatio="xMidYMid meet" xmlns="http://www.w3.org/2000/svg" xmlns:xlink="http://www.w3.org/1999/xlink" xml:space="preserve" overflow="hidden"><g transform="translate(-410 -376)"><path d="M1023 796.5C1023 706.754 1095.75 634 1185.5 634 1275.25 634 1348 706.754 1348 796.5 1348 886.246 1275.25 959 1185.5 959 1095.75 959 1023 886.246 1023 796.5Z" fill="#FFFFFF" fill-rule="evenodd"/><path d="M1540 796.5C1540 706.754 1612.75 634 1702.5 634 1792.25 634 1865 706.754 1865 796.5 1865 886.246 1792.25 959 1702.5 959 1612.75 959 1540 886.246 1540 796.5Z" fill="#FFFFFF" fill-rule="evenodd"/><path d="M750 1230.5C750 1140.75 822.754 1068 912.5 1068 1002.25 1068 1075 1140.75 1075 1230.5 1075 1320.25 1002.25 1393 912.5 1393 822.754 1393 750 1320.25 750 1230.5Z" fill="#FFFFFF" fill-rule="evenodd"/><path d="M1803 1230.5C1803 1140.75 1875.75 1068 1965.5 1068 2055.25 1068 2128 1140.75 2128 1230.5 2128 1320.25 2055.25 1393 1965.5 1393 1875.75 1393 1803 1320.25 1803 1230.5Z" fill="#FFFFFF" fill-rule="evenodd"/><path d="M1023 1666.5C1023 1576.75 1095.75 1504 1185.5 1504 1275.25 1504 1348 1576.75 1348 1666.5 1348 1756.25 1275.25 1829 1185.5 1829 1095.75 1829 1023 1756.25 1023 1666.5Z" fill="#FFFFFF" fill-rule="evenodd"/><path d="M1540 1666.5C1540 1576.75 1612.75 1504 1702.5 1504 1792.25 1504 1865 1576.75 1865 1666.5 1865 1756.25 1792.25 1829 1702.5 1829 1612.75 1829 1540 1756.25 1540 1666.5Z" fill="#FFFFFF" fill-rule="evenodd"/><path d="M841 467C841 416.742 881.742 376 932 376 982.258 376 1023 416.742 1023 467 1023 517.258 982.258 558 932 558 881.742 558 841 517.258 841 467Z" fill="#FFFFFF" fill-rule="evenodd"/><path d="M1865 467C1865 416.742 1905.74 376 1956 376 2006.26 376 2047 416.742 2047 467 2047 517.258 2006.26 558 1956 558 1905.74 558 1865 517.258 1865 467Z" fill="#FFFFFF" fill-rule="evenodd"/><path d="M841 1997C841 1946.74 881.742 1906 932 1906 982.258 1906 1023 1946.74 1023 1997 1023 2047.26 982.258 2088 932 2088 881.742 2088 841 2047.26 841 1997Z" fill="#FFFFFF" fill-rule="evenodd"/><path d="M1865 1997C1865 1946.74 1905.74 1906 1956 1906 2006.26 1906 2047 1946.74 2047 1997 2047 2047.26 2006.26 2088 1956 2088 1905.74 2088 1865 2047.26 1865 1997Z" fill="#FFFFFF" fill-rule="evenodd"/><path d="M410 1230C410 1179.74 450.742 1139 501 1139 551.258 1139 592 1179.74 592 1230 592 1280.26 551.258 1321 501 1321 450.742 1321 410 1280.26 410 1230Z" fill="#FFFFFF" fill-rule="evenodd"/><rect x="1308" y="755" width="275" height="83.0002" fill="#FFFFFF"/><rect x="1307" y="1637" width="275" height="83.0002" fill="#FFFFFF"/><path d="M940.919 1121.64 1078.42 883.484 1150.82 925.286 1013.32 1163.44Z" fill="#FFFFFF" fill-rule="evenodd"/><rect x="0" y="0" width="275" height="83.6047" fill="#FFFFFF" transform="matrix(-0.5 -0.866025 -0.866025 0.5 1948.91 1127.48)"/><rect x="0" y="0" width="275" height="83.6047" fill="#FFFFFF" transform="matrix(0.5 0.866025 0.866025 -0.5 928.904 1335.18)"/><path d="M1936.9 1341.02 1799.4 1579.17 1726.99 1537.37 1864.49 1299.21Z" fill="#FFFFFF" fill-rule="evenodd"/><path d="M2288 1230C2288 1179.74 2328.74 1139 2379 1139 2429.26 1139 2470 1179.74 2470 1230 2470 1280.26 2429.26 1321 2379 1321 2328.74 1321 2288 1280.26 2288 1230Z" fill="#FFFFFF" fill-rule="evenodd"/><path d="M1977.53 1201.02C1984.75 1186.27 2002.85 1175.8 2024.01 1175.8 2051.52 1175.8 2073.85 1193.5 2073.85 1215.3 2073.85 1237.1 2051.52 1254.8 2024.01 1254.8 1996.5 1254.8 1974.16 1237.1 1974.16 1215.3 1974.16 1212.8 1974.46 1210.35 1975.02 1207.98 1972.07 1207.02 1968.79 1206.45 1965.35 1206.45 1961.91 1206.45 1958.63 1207.02 1955.68 1207.98 1956.24 1210.35 1956.54 1212.8 1956.54 1215.3 1956.54 1237.1 1934.2 1254.8 1906.69 1254.8 1879.18 1254.8 1856.85 1237.1 1856.85 1215.3 1856.85 1193.5 1879.18 1175.8 1906.69 1175.8 1927.85 1175.8 1945.95 1186.27 1953.18 1201.02 1956.59 1198.87 1960.8 1197.61 1965.35 1197.61 1969.9 1197.61 1974.11 1198.87 1977.53 1201.02Z" fill-rule="evenodd"/></g></svg>