<svg width="3264" height="1712" xmlns="http://www.w3.org/2000/svg" xmlns:xlink="http://www.w3.org/1999/xlink" xml:space="preserve" overflow="hidden"><g transform="translate(-410 -376)"><path d="M1023 796.5C1023 706.754 1095.75 634 1185.5 634 1275.25 634 1348 706.754 1348 796.5 1348 886.246 1275.25 959 1185.5 959 1095.75 959 1023 886.246 1023 796.5Z" fill="#FFFFFF" fill-rule="evenodd"/><path d="M1540 796.5C1540 706.754 1612.75 634 1702.5 634 1792.25 634 1865 706.754 1865 796.5 1865 886.246 1792.25 959 1702.5 959 1612.75 959 1540 886.246 1540 796.5Z" fill="#FFFFFF" fill-rule="evenodd"/><path d="M750 1230.5C750 1140.75 822.754 1068 912.5 1068 1002.25 1068 1075 1140.75 1075 1230.5 1075 1320.25 1002.25 1393 912.5 1393 822.754 1393 750 1320.25 750 1230.5Z" fill="#FFFFFF" fill-rule="evenodd"/><path d="M1803 1230.5C1803 1140.75 1875.75 1068 1965.5 1068 2055.25 1068 2128 1140.75 2128 1230.5 2128 1320.25 2055.25 1393 1965.5 1393 1875.75 1393 1803 1320.25 1803 1230.5Z" fill="#FFFFFF" fill-rule="evenodd"/><path d="M1023 1666.5C1023 1576.75 1095.75 1504 1185.5 1504 1275.25 1504 1348 1576.75 1348 1666.5 1348 1756.25 1275.25 1829 1185.5 1829 1095.75 1829 1023 1756.25 1023 1666.5Z" fill="#FFFFFF" fill-rule="evenodd"/><path d="M1540 1666.5C1540 1576.75 1612.75 1504 1702.5 1504 1792.25 1504 1865 1576.75 1865 1666.5 1865 1756.25 1792.25 1829 1702.5 1829 1612.75 1829 1540 1756.25 1540 1666.5Z" fill="#FFFFFF" fill-rule="evenodd"/><path d="M841 467C841 416.742 881.742 376 932 376 982.258 376 1023 416.742 1023 467 1023 517.258 982.258 558 932 558 881.742 558 841 517.258 841 467Z" fill="#FFFFFF" fill-rule="evenodd"/><path d="M1865 467C1865 416.742 1905.74 376 1956 376 2006.26 376 2047 416.742 2047 467 2047 517.258 2006.26 558 1956 558 1905.74 558 1865 517.258 1865 467Z" fill="#FFFFFF" fill-rule="evenodd"/><path d="M841 1997C841 1946.74 881.742 1906 932 1906 982.258 1906 1023 1946.74 1023 1997 1023 2047.26 982.258 2088 932 2088 881.742 2088 841 2047.26 841 1997Z" fill="#FFFFFF" fill-rule="evenodd"/><path d="M1865 1997C1865 1946.74 1905.74 1906 1956 1906 2006.26 1906 2047 1946.74 2047 1997 2047 2047.26 2006.26 2088 1956 2088 1905.74 2088 1865 2047.26 1865 1997Z" fill="#FFFFFF" fill-rule="evenodd"/><path d="M410 1230C410 1179.74 450.742 1139 501 1139 551.258 1139 592 1179.74 592 1230 592 1280.26 551.258 1321 501 1321 450.742 1321 410 1280.26 410 1230Z" fill="#FFFFFF" fill-rule="evenodd"/><rect x="1308" y="755" width="275" height="83.0002" fill="#FFFFFF"/><rect x="1307" y="1637" width="275" height="83.0002" fill="#FFFFFF"/><path d="M940.919 1121.64 1078.42 883.484 1150.82 925.286 1013.32 1163.44Z" fill="#FFFFFF" fill-rule="evenodd"/><rect x="0" y="0" width="275" height="83.6047" fill="#FFFFFF" transform="matrix(-0.5 -0.866025 -0.866025 0.5 1948.91 1127.48)"/><rect x="0" y="0" width="275" height="83.6047" fill="#FFFFFF" transform="matrix(0.5 0.866025 0.866025 -0.5 928.904 1335.18)"/><path d="M1936.9 1341.02 1799.4 1579.17 1726.99 1537.37 1864.49 1299.21Z" fill="#FFFFFF" fill-rule="evenodd"/><path d="M1977.53 1201.02C1984.75 1186.27 2002.85 1175.8 2024.01 1175.8 2051.52 1175.8 2073.85 1193.5 2073.85 1215.3 2073.85 1237.1 2051.52 1254.8 2024.01 1254.8 1996.5 1254.8 1974.16 1237.1 1974.16 1215.3 1974.16 1212.8 1974.46 1210.35 1975.02 1207.98 1972.07 1207.02 1968.79 1206.45 1965.35 1206.45 1961.91 1206.45 1958.63 1207.02 1955.68 1207.98 1956.24 1210.35 1956.54 1212.8 1956.54 1215.3 1956.54 1237.1 1934.2 1254.8 1906.69 1254.8 1879.18 1254.8 1856.85 1237.1 1856.85 1215.3 1856.85 1193.5 1879.18 1175.8 1906.69 1175.8 1927.85 1175.8 1945.95 1186.27 1953.18 1201.02 1956.59 1198.87 1960.8 1197.61 1965.35 1197.61 1969.9 1197.61 1974.11 1198.87 1977.53 1201.02Z" fill-rule="evenodd"/><path d="M2251.25 1110.19 2251.25 1207.47 2280.04 1207.47C2298.94 1207.47 2313.9 1203.94 2324.91 1196.89 2335.92 1189.84 2341.43 1176.75 2341.43 1157.6 2341.43 1142.46 2336.93 1130.78 2327.93 1122.54 2318.92 1114.3 2306.01 1110.19 2289.2 1110.19ZM3113.27 1071.01 3158.14 1071.01 3158.14 1251.1C3158.14 1284.94 3165.43 1309.27 3180.01 1324.11 3194.6 1338.96 3217.15 1346.38 3247.65 1346.38 3277.86 1346.38 3300.22 1338.77 3314.73 1323.56 3329.24 1308.35 3336.5 1284.04 3336.5 1250.65L3336.5 1071.01 3381.14 1071.01 3381.14 1250.65C3381.14 1293.84 3369.95 1327.19 3347.55 1350.72 3325.15 1374.24 3291.85 1386 3247.65 1386 3203.75 1386 3170.38 1374.83 3147.53 1352.5 3124.69 1330.16 3113.27 1296.36 3113.27 1251.1ZM2818.46 1071.01 2995.25 1071.01 2995.25 1110.63 2863.1 1110.63 2863.1 1205.46 2990.79 1205.46 2990.79 1245.31 2863.1 1245.31 2863.1 1341.92 2999.5 1341.92 2999.5 1381.99 2818.46 1381.99ZM2543.47 1071.01 2709.77 1071.01 2709.77 1111.08 2588.11 1111.08 2588.11 1197.45 2709.77 1197.45 2709.77 1237.52 2588.11 1237.52 2588.11 1381.99 2543.47 1381.99ZM2206.6 1071.01 2292.54 1071.01C2312.34 1071.01 2329.38 1074.98 2343.66 1082.92 2357.95 1090.86 2368.78 1101.43 2376.14 1114.64 2383.51 1127.85 2387.19 1142.17 2387.19 1157.6 2387.19 1175.86 2382.77 1191.51 2373.91 1204.57 2365.06 1217.63 2352.07 1227.5 2334.96 1234.18 2345.08 1240.56 2353.56 1247.57 2360.41 1255.22 2367.25 1262.86 2377.82 1277.44 2392.1 1298.96L2447.02 1381.99 2393.89 1381.99 2344.56 1305.42C2329.97 1282.26 2317.17 1266.68 2306.16 1258.67 2295.15 1250.65 2283.54 1246.65 2271.34 1246.65L2251.25 1246.65 2251.25 1381.99 2206.6 1381.99ZM1416 1071.01 1457.97 1071.01 1561.77 1198.79 1665.12 1071.01 1706.64 1071.01 1706.64 1381.99 1661.78 1381.99 1661.78 1140.02 1565.79 1260.23 1557.53 1260.23 1460.65 1140.02 1460.65 1381.99 1416 1381.99ZM3588.84 1067C3614.44 1067 3638.33 1074.27 3660.5 1088.82L3660.5 1139.35C3638.33 1117.83 3613.99 1107.07 3587.5 1107.07 3573.51 1107.07 3562.39 1110.33 3554.13 1116.86 3545.87 1123.39 3541.74 1132.15 3541.74 1143.13 3541.74 1150.11 3542.82 1156.27 3544.98 1161.61 3547.14 1166.95 3551.94 1173.04 3559.38 1179.86 3566.82 1186.69 3577.98 1194.33 3592.86 1202.79 3614.89 1215.55 3631.59 1226.87 3642.98 1236.74 3654.36 1246.61 3662.21 1256.74 3666.53 1267.13 3670.84 1277.51 3673 1290.13 3673 1304.97 3673 1320.11 3669.17 1333.84 3661.5 1346.15 3653.84 1358.47 3643.16 1368.19 3629.47 1375.31 3615.78 1382.44 3600.08 1386 3582.37 1386 3552.31 1386 3524.25 1376.43 3498.21 1357.28L3498.21 1300.74C3509.22 1315.43 3521.99 1326.71 3536.5 1334.58 3551.01 1342.44 3566.3 1346.38 3582.37 1346.38 3595.47 1346.38 3606.37 1342.52 3615.07 1334.8 3623.78 1327.08 3628.13 1317.29 3628.13 1305.42 3628.13 1297.55 3626.68 1290.57 3623.78 1284.49 3620.88 1278.41 3614.55 1271.39 3604.8 1263.45 3595.06 1255.51 3580.29 1245.76 3560.49 1234.18 3537.28 1220.82 3520.87 1207.32 3511.27 1193.67 3501.67 1180.01 3496.87 1163.61 3496.87 1144.47 3496.87 1129.92 3500.85 1116.72 3508.81 1104.84 3516.78 1092.97 3527.68 1083.7 3541.52 1077.02 3555.36 1070.34 3571.13 1067 3588.84 1067Z" fill="#FFFFFF" fill-rule="evenodd"/><path d="M1929.3 1461.05 1929.71 1466.57C1933.47 1462.26 1938.65 1460.05 1945.15 1460.05 1952.36 1460.05 1957.24 1462.76 1959.88 1468.18 1963.85 1462.76 1969.33 1460.05 1976.34 1460.05 1982.34 1460.05 1986.71 1461.66 1989.55 1464.87 1992.5 1468.08 1993.92 1472.9 1994.02 1479.22L1994.02 1514.05 1981.93 1514.05 1981.93 1479.52C1981.93 1476.21 1981.22 1473.7 1979.7 1472.19 1978.27 1470.59 1975.84 1469.79 1972.38 1469.79 1969.64 1469.79 1967.4 1470.49 1965.67 1471.99 1963.85 1473.4 1962.63 1475.31 1962.02 1477.71L1962.02 1514.05 1949.93 1514.05 1949.93 1479.12C1949.82 1472.9 1946.57 1469.79 1940.27 1469.79 1935.5 1469.79 1932.04 1471.69 1930.01 1475.61L1930.01 1514.05 1918.02 1514.05 1918.02 1461.05 1929.3 1461.05Z" fill="#008F11" fill-rule="evenodd"/><path d="M2004.03 1487.05C2004.03 1481.83 2005.03 1477.21 2007.02 1473 2009.12 1468.88 2012.01 1465.67 2015.71 1463.36 2019.4 1461.15 2023.69 1460.05 2028.48 1460.05 2035.56 1460.05 2041.35 1462.36 2045.74 1466.97 2050.23 1471.59 2052.63 1477.71 2052.93 1485.24L2053.03 1488.05C2053.03 1493.27 2052.03 1497.99 2050.04 1502.1 2048.04 1506.22 2045.15 1509.43 2041.45 1511.64 2037.76 1513.95 2033.37 1515.05 2028.58 1515.05 2021.09 1515.05 2015.11 1512.54 2010.72 1507.52 2006.22 1502.6 2004.03 1495.88 2004.03 1487.65L2004.03 1487.05ZM2015.81 1488.05C2015.81 1493.57 2016.9 1497.79 2019.2 1500.9 2021.39 1504.01 2024.59 1505.51 2028.58 1505.51 2032.57 1505.51 2035.66 1503.91 2037.86 1500.8 2040.06 1497.69 2041.25 1493.07 2041.25 1487.05 2041.25 1481.73 2040.06 1477.41 2037.76 1474.3 2035.47 1471.19 2032.37 1469.58 2028.48 1469.58 2024.59 1469.58 2021.49 1471.19 2019.2 1474.2 2017 1477.31 2015.81 1481.93 2015.81 1488.05Z" fill="#008F11" fill-rule="evenodd"/><path d="M2066.03 1438.05 2072.03 1438.05 2072.03 1514.05 2066.03 1514.05Z" fill="#008F11" fill-rule="evenodd"/><path d="M2109.01 1515.05C2104.46 1515.05 2100.31 1513.95 2096.67 1511.74 2093.03 1509.43 2090.1 1506.42 2088.07 1502.4 2086.05 1498.39 2085.04 1493.97 2085.04 1489.05L2085.04 1486.95C2085.04 1481.83 2086.05 1477.21 2087.97 1473.2 2089.99 1469.08 2092.83 1465.87 2096.37 1463.56 2099.91 1461.25 2103.75 1460.05 2107.9 1460.05 2114.37 1460.05 2119.53 1462.26 2123.37 1466.67 2127.12 1470.99 2129.04 1477.01 2129.04 1484.64L2129.04 1487.95 2090.9 1487.95 2090.9 1489.05C2090.9 1495.08 2092.62 1500.09 2096.16 1504.11 2099.6 1508.12 2103.95 1510.03 2109.21 1510.03 2112.35 1510.03 2115.18 1509.53 2117.61 1508.32 2120.04 1507.22 2122.26 1505.41 2124.18 1502.91L2127.93 1505.72C2123.58 1511.94 2117.2 1515.05 2109.01 1515.05ZM2107.9 1465.07C2103.45 1465.07 2099.7 1466.67 2096.67 1469.89 2093.64 1473.1 2091.81 1477.51 2091.11 1482.93L2123.17 1482.93 2123.17 1482.33C2122.97 1477.21 2121.55 1473 2118.72 1469.89 2115.99 1466.67 2112.35 1465.07 2107.9 1465.07Z" fill="#008F11" fill-rule="evenodd"/><path d="M2159.6 1510.03C2163.71 1510.03 2167.11 1508.93 2169.92 1506.62 2172.63 1504.31 2174.13 1501.3 2174.33 1497.69L2180.04 1497.69C2179.84 1500.9 2178.84 1503.91 2176.94 1506.52 2175.13 1509.23 2172.63 1511.24 2169.52 1512.74 2166.51 1514.25 2163.2 1515.05 2159.6 1515.05 2152.68 1515.05 2147.17 1512.64 2143.16 1507.72 2139.05 1502.91 2137.04 1496.48 2137.04 1488.25L2137.04 1486.55C2137.04 1481.33 2137.95 1476.61 2139.75 1472.59 2141.55 1468.58 2144.26 1465.47 2147.67 1463.36 2151.08 1461.15 2154.98 1460.05 2159.6 1460.05 2165.41 1460.05 2170.22 1461.76 2173.93 1465.27 2177.74 1468.68 2179.74 1473.3 2180.04 1478.92L2174.33 1478.92C2174.13 1474.8 2172.63 1471.39 2169.92 1468.88 2167.21 1466.27 2163.71 1465.07 2159.6 1465.07 2154.28 1465.07 2150.17 1466.97 2147.27 1470.79 2144.36 1474.6 2142.86 1479.92 2142.86 1486.85L2142.86 1488.55C2142.86 1495.28 2144.36 1500.6 2147.27 1504.41 2150.17 1508.22 2154.28 1510.03 2159.6 1510.03Z" fill="#008F11" fill-rule="evenodd"/><path d="M2226.25 1507.32C2222.75 1512.44 2217.15 1515.05 2209.45 1515.05 2203.75 1515.05 2199.45 1513.34 2196.55 1510.13 2193.65 1506.82 2192.15 1502 2192.05 1495.48L2192.05 1461.05 2197.85 1461.05 2197.85 1494.77C2197.85 1504.91 2201.95 1509.93 2210.05 1509.93 2218.55 1509.93 2223.95 1506.42 2226.15 1499.39L2226.15 1461.05 2232.05 1461.05 2232.05 1514.05 2226.35 1514.05 2226.25 1507.32Z" fill="#008F11" fill-rule="evenodd"/><path d="M2248.05 1438.05 2254.05 1438.05 2254.05 1514.05 2248.05 1514.05Z" fill="#008F11" fill-rule="evenodd"/><path d="M2303.9 1514.05C2303.3 1512.34 2302.91 1509.93 2302.71 1506.62 2300.72 1509.33 2298.14 1511.44 2294.96 1512.84 2291.79 1514.35 2288.51 1515.05 2284.94 1515.05 2279.87 1515.05 2275.8 1513.64 2272.72 1510.73 2269.64 1507.92 2268.06 1504.31 2268.06 1499.99 2268.06 1494.78 2270.14 1490.76 2274.41 1487.75 2278.68 1484.74 2284.54 1483.23 2292.18 1483.23L2302.71 1483.23 2302.71 1477.21C2302.71 1473.4 2301.52 1470.39 2299.23 1468.28 2296.95 1466.07 2293.57 1464.97 2289.11 1464.97 2285.13 1464.97 2281.76 1466.07 2279.08 1468.08 2276.4 1470.19 2275.11 1472.7 2275.11 1475.71L2269.35 1475.61C2269.35 1471.39 2271.23 1467.78 2275.11 1464.67 2278.98 1461.55 2283.74 1460.05 2289.4 1460.05 2295.26 1460.05 2299.93 1461.55 2303.3 1464.47 2306.68 1467.48 2308.37 1471.59 2308.47 1476.81L2308.47 1501.9C2308.47 1507.12 2308.96 1510.93 2310.06 1513.44L2310.06 1514.05 2303.9 1514.05ZM2285.63 1509.83C2289.5 1509.83 2292.98 1508.93 2296.06 1507.02 2299.13 1505.11 2301.32 1502.6 2302.71 1499.39L2302.71 1487.75 2292.28 1487.75C2286.52 1487.75 2282.06 1488.85 2278.78 1490.96 2275.5 1492.97 2273.81 1495.88 2273.81 1499.49 2273.81 1502.5 2274.91 1504.91 2277.09 1506.92 2279.28 1508.83 2282.16 1509.83 2285.63 1509.83Z" fill="#008F11" fill-rule="evenodd"/><path d="M2350.96 1471.89C2349.44 1471.59 2347.83 1471.49 2346.11 1471.49 2340.65 1471.49 2336.91 1473.6 2334.99 1477.82L2334.99 1514.05 2323.06 1514.05 2323.06 1461.05 2334.48 1461.05 2334.79 1466.98C2337.62 1462.36 2341.66 1460.05 2346.82 1460.05 2348.53 1460.05 2349.95 1460.25 2351.06 1460.75L2350.96 1471.89Z" fill="#008F11" fill-rule="evenodd"/><path d="M2388.12 1514.05 2388.12 1469.47 2380.07 1469.47 2380.07 1460.55 2388.12 1460.55 2388.12 1455.59C2388.12 1449.71 2389.71 1445.05 2392.89 1441.91 2396.17 1438.67 2400.64 1437.05 2406.51 1437.05 2408.59 1437.05 2410.78 1437.35 2413.07 1437.96L2412.87 1447.28C2411.58 1447.08 2409.99 1446.88 2408.3 1446.88 2402.73 1446.88 2399.85 1449.92 2399.85 1455.79L2399.85 1460.55 2410.58 1460.55 2410.58 1469.47 2399.85 1469.47 2399.85 1514.05 2388.12 1514.05Z" fill="#008F11" fill-rule="evenodd"/><path d="M2442.6 1515.05C2435 1515.05 2428.82 1512.64 2424.16 1507.92 2419.4 1503.11 2417.07 1496.78 2417.07 1488.95L2417.07 1487.45C2417.07 1482.13 2418.09 1477.41 2420.11 1473.3 2422.14 1469.08 2425.08 1465.87 2428.82 1463.56 2432.57 1461.15 2436.72 1460.05 2441.28 1460.05 2448.58 1460.05 2454.15 1462.36 2458.2 1466.97 2462.15 1471.59 2464.07 1478.11 2464.07 1486.55L2464.07 1491.26 2429.13 1491.26C2429.53 1495.68 2430.95 1499.19 2433.58 1501.7 2436.12 1504.21 2439.46 1505.51 2443.31 1505.51 2448.88 1505.51 2453.34 1503.31 2456.78 1498.89L2463.26 1505.01C2461.14 1508.22 2458.3 1510.63 2454.65 1512.44 2451.11 1514.15 2447.06 1515.05 2442.6 1515.05ZM2441.18 1469.58C2437.94 1469.58 2435.2 1470.79 2433.18 1473 2431.15 1475.3 2429.94 1478.52 2429.33 1482.63L2452.22 1482.63 2452.22 1481.73C2452.02 1477.71 2450.91 1474.7 2448.98 1472.7 2447.16 1470.59 2444.52 1469.58 2441.18 1469.58Z" fill="#008F11" fill-rule="evenodd"/><path d="M2508.92 1514.05C2508.33 1512.34 2507.93 1509.93 2507.73 1506.62 2505.74 1509.33 2503.16 1511.44 2499.98 1512.84 2496.81 1514.35 2493.53 1515.05 2489.96 1515.05 2484.89 1515.05 2480.82 1513.64 2477.74 1510.73 2474.67 1507.92 2473.08 1504.31 2473.08 1499.99 2473.08 1494.78 2475.16 1490.76 2479.43 1487.75 2483.7 1484.74 2489.56 1483.23 2497.2 1483.23L2507.73 1483.23 2507.73 1477.21C2507.73 1473.4 2506.54 1470.39 2504.25 1468.28 2501.97 1466.07 2498.59 1464.97 2494.13 1464.97 2490.16 1464.97 2486.78 1466.07 2484.1 1468.08 2481.42 1470.19 2480.13 1472.7 2480.13 1475.71L2474.37 1475.61C2474.37 1471.39 2476.25 1467.78 2480.13 1464.67 2484 1461.55 2488.77 1460.05 2494.42 1460.05 2500.28 1460.05 2504.95 1461.55 2508.33 1464.47 2511.7 1467.48 2513.39 1471.59 2513.49 1476.81L2513.49 1501.9C2513.49 1507.12 2513.98 1510.93 2515.08 1513.44L2515.08 1514.05 2508.92 1514.05ZM2490.65 1509.83C2494.52 1509.83 2498 1508.93 2501.08 1507.02 2504.16 1505.11 2506.34 1502.6 2507.73 1499.39L2507.73 1487.75 2497.3 1487.75C2491.55 1487.75 2487.08 1488.85 2483.8 1490.96 2480.52 1492.97 2478.84 1495.88 2478.84 1499.49 2478.84 1502.5 2479.93 1504.91 2482.11 1506.92 2484.3 1508.83 2487.18 1509.83 2490.65 1509.83Z" fill="#008F11" fill-rule="evenodd"/><path d="M2538.97 1447.05 2538.97 1460.77 2550.07 1460.77 2550.07 1465.61 2538.97 1465.61 2538.97 1501.13C2538.97 1504.05 2539.48 1506.27 2540.6 1507.68 2541.61 1509.1 2543.45 1509.8 2545.99 1509.8 2547.01 1509.8 2548.54 1509.7 2550.78 1509.4L2551.08 1514.14C2549.45 1514.75 2547.42 1515.05 2544.67 1515.05 2540.6 1515.05 2537.64 1513.84 2535.81 1511.52 2533.98 1509.2 2532.96 1505.67 2532.96 1501.13L2532.96 1465.61 2523.08 1465.61 2523.08 1460.77 2532.96 1460.77 2532.96 1447.05 2538.97 1447.05Z" fill="#008F11" fill-rule="evenodd"/><path d="M2592.53 1508.83C2589.02 1512.94 2584.1 1515.05 2577.57 1515.05 2571.84 1515.05 2567.52 1513.34 2564.51 1509.93 2561.59 1506.62 2560.09 1501.7 2560.09 1495.38L2560.09 1461.05 2572.04 1461.05 2572.04 1495.18C2572.04 1502 2574.85 1505.31 2580.38 1505.31 2586.21 1505.31 2590.12 1503.21 2592.13 1499.09L2592.13 1461.05 2604.09 1461.05 2604.09 1514.05 2592.84 1514.05 2592.53 1508.83Z" fill="#008F11" fill-rule="evenodd"/><path d="M2642.89 1465.97C2641.67 1465.77 2640.35 1465.67 2638.93 1465.67 2635.17 1465.67 2632.02 1466.67 2629.48 1468.78 2626.93 1470.79 2625.11 1473.7 2623.99 1477.61L2623.99 1514.05 2618.09 1514.05 2618.09 1461.05 2623.89 1461.05 2623.99 1469.48C2627.14 1463.16 2632.22 1460.05 2639.13 1460.05 2640.76 1460.05 2642.08 1460.25 2643.09 1460.65L2642.89 1465.97Z" fill="#008F11" fill-rule="evenodd"/><path d="M2672.07 1515.05C2667.52 1515.05 2663.37 1513.95 2659.73 1511.74 2656.09 1509.43 2653.15 1506.42 2651.13 1502.4 2649.11 1498.39 2648.1 1493.97 2648.1 1489.05L2648.1 1486.95C2648.1 1481.83 2649.11 1477.21 2651.03 1473.2 2653.05 1469.08 2655.89 1465.87 2659.43 1463.56 2662.97 1461.25 2666.81 1460.05 2670.96 1460.05 2677.43 1460.05 2682.59 1462.26 2686.43 1466.67 2690.18 1470.99 2692.1 1477.01 2692.1 1484.64L2692.1 1487.95 2653.96 1487.95 2653.96 1489.05C2653.96 1495.08 2655.68 1500.09 2659.22 1504.11 2662.66 1508.12 2667.01 1510.03 2672.27 1510.03 2675.41 1510.03 2678.24 1509.53 2680.67 1508.32 2683.09 1507.22 2685.32 1505.41 2687.24 1502.91L2690.98 1505.72C2686.64 1511.94 2680.26 1515.05 2672.07 1515.05ZM2670.96 1465.07C2666.51 1465.07 2662.76 1466.67 2659.73 1469.89 2656.69 1473.1 2654.87 1477.51 2654.17 1482.93L2686.23 1482.93 2686.23 1482.33C2686.03 1477.21 2684.61 1473 2681.78 1469.89 2679.05 1466.67 2675.41 1465.07 2670.96 1465.07Z" fill="#008F11" fill-rule="evenodd"/><path d="M2730.03 1499.39C2730.03 1497.69 2729.21 1496.28 2727.48 1495.28 2725.74 1494.27 2722.89 1493.37 2719.01 1492.67 2706.26 1489.96 2699.84 1484.64 2699.84 1476.51 2699.84 1471.89 2701.78 1467.88 2705.75 1464.77 2709.73 1461.66 2714.93 1460.05 2721.36 1460.05 2728.19 1460.05 2733.7 1461.66 2737.78 1464.77 2741.86 1467.98 2743.9 1472.09 2743.9 1477.11L2729.52 1477.11C2729.52 1475.1 2728.8 1473.4 2727.48 1472.09 2726.15 1470.79 2724.11 1470.09 2721.26 1470.09 2718.91 1470.09 2716.97 1470.69 2715.65 1471.79 2714.32 1472.8 2713.71 1474.2 2713.71 1475.91 2713.71 1477.41 2714.42 1478.72 2715.95 1479.62 2717.48 1480.62 2720.03 1481.43 2723.6 1482.13 2727.17 1482.83 2730.23 1483.64 2732.68 1484.54 2740.23 1487.25 2744.1 1492.07 2744.1 1498.79 2744.1 1503.61 2741.96 1507.52 2737.78 1510.53 2733.5 1513.54 2728.09 1515.05 2721.36 1515.05 2716.87 1515.05 2712.89 1514.25 2709.32 1512.64 2705.85 1511.03 2703.1 1508.93 2701.16 1506.12 2699.12 1503.41 2698.1 1500.4 2698.1 1497.18L2711.77 1497.18C2711.87 1499.69 2712.89 1501.6 2714.63 1503.01 2716.36 1504.31 2718.71 1505.01 2721.66 1505.01 2724.42 1505.01 2726.56 1504.51 2727.99 1503.41 2729.31 1502.4 2730.03 1501.1 2730.03 1499.39Z" fill="#008F11" fill-rule="evenodd"/><path d="M2783.95 1514.05 2783.95 1465.42 2775.11 1465.42 2775.11 1460.55 2783.95 1460.55 2783.95 1454.07C2783.95 1448.6 2785.38 1444.34 2788.12 1441.41 2790.97 1438.47 2794.83 1437.05 2799.81 1437.05 2802.15 1437.05 2804.18 1437.35 2806.11 1437.86L2805.7 1442.82C2804.08 1442.42 2802.25 1442.22 2800.32 1442.22 2797.06 1442.22 2794.52 1443.23 2792.69 1445.26 2790.86 1447.28 2789.95 1450.12 2789.95 1453.87L2789.95 1460.55 2802.76 1460.55 2802.76 1465.42 2789.95 1465.42 2789.95 1514.05 2783.95 1514.05Z" fill="#008F11" fill-rule="evenodd"/><path d="M2810.12 1486.75C2810.12 1481.63 2811.13 1477.11 2813.06 1473 2815.1 1468.88 2817.95 1465.67 2821.61 1463.46 2825.27 1461.15 2829.44 1460.05 2834.01 1460.05 2841.23 1460.05 2847.03 1462.56 2851.4 1467.48 2855.88 1472.39 2858.11 1479.02 2858.11 1487.15L2858.11 1488.35C2858.11 1493.47 2857.1 1498.09 2855.06 1502.2 2853.03 1506.32 2850.28 1509.43 2846.62 1511.74 2842.96 1513.95 2838.79 1515.05 2834.11 1515.05 2827 1515.05 2821.2 1512.54 2816.83 1507.62 2812.35 1502.6 2810.12 1496.08 2810.12 1487.95L2810.12 1486.75ZM2816.12 1488.35C2816.12 1494.68 2817.74 1499.89 2821.1 1504.01 2824.35 1508.02 2828.73 1510.03 2834.11 1510.03 2839.5 1510.03 2843.88 1508.02 2847.13 1504.01 2850.49 1499.89 2852.22 1494.57 2852.22 1487.85L2852.22 1486.75C2852.22 1482.73 2851.4 1479.02 2849.88 1475.61 2848.35 1472.29 2846.22 1469.68 2843.47 1467.78 2840.73 1465.97 2837.57 1465.07 2834.01 1465.07 2828.73 1465.07 2824.45 1467.07 2821.1 1471.19 2817.74 1475.3 2816.12 1480.62 2816.12 1487.25L2816.12 1488.35Z" fill="#008F11" fill-rule="evenodd"/><path d="M2894.92 1465.97C2893.7 1465.77 2892.38 1465.67 2890.95 1465.67 2887.19 1465.67 2884.04 1466.67 2881.5 1468.78 2878.96 1470.79 2877.13 1473.7 2876.01 1477.61L2876.01 1514.05 2870.12 1514.05 2870.12 1461.05 2875.91 1461.05 2876.01 1469.48C2879.16 1463.16 2884.25 1460.05 2891.16 1460.05 2892.78 1460.05 2894.1 1460.25 2895.12 1460.65L2894.92 1465.97Z" fill="#008F11" fill-rule="evenodd"/><path d="M2933.8 1461.05 2934 1469.68C2936.02 1466.47 2938.45 1464.06 2941.49 1462.46 2944.42 1460.85 2947.66 1460.05 2951.31 1460.05 2959.81 1460.05 2965.07 1463.46 2967.4 1470.29 2969.32 1467.08 2971.85 1464.47 2975.09 1462.76 2978.23 1460.95 2981.77 1460.05 2985.62 1460.05 2997.06 1460.05 3002.93 1466.27 3003.13 1478.62L3003.13 1514.05 2997.26 1514.05 2997.26 1479.12C2997.26 1474.4 2996.14 1470.89 2994.12 1468.58 2992.1 1466.27 2988.86 1465.17 2984.2 1465.17 2979.95 1465.17 2976.41 1466.57 2973.47 1469.18 2970.54 1471.89 2968.92 1475.11 2968.61 1478.92L2968.61 1514.05 2962.64 1514.05 2962.64 1478.62C2962.64 1474.1 2961.53 1470.69 2959.4 1468.48 2957.28 1466.27 2954.04 1465.17 2949.59 1465.17 2945.84 1465.17 2942.7 1466.17 2939.97 1468.28 2937.34 1470.39 2935.42 1473.5 2934.1 1477.71L2934.1 1514.05 2928.13 1514.05 2928.13 1461.05 2933.8 1461.05Z" fill="#008F11" fill-rule="evenodd"/><path d="M3051.98 1514.05C3051.38 1512.34 3050.98 1509.93 3050.79 1506.62 3048.8 1509.33 3046.22 1511.44 3043.04 1512.84 3039.86 1514.35 3036.59 1515.05 3033.01 1515.05 3027.95 1515.05 3023.88 1513.64 3020.8 1510.73 3017.72 1507.92 3016.13 1504.31 3016.13 1499.99 3016.13 1494.78 3018.22 1490.76 3022.49 1487.75 3026.76 1484.74 3032.62 1483.23 3040.26 1483.23L3050.79 1483.23 3050.79 1477.21C3050.79 1473.4 3049.59 1470.39 3047.31 1468.28 3045.03 1466.07 3041.65 1464.97 3037.18 1464.97 3033.21 1464.97 3029.84 1466.07 3027.15 1468.08 3024.47 1470.19 3023.18 1472.7 3023.18 1475.71L3017.42 1475.61C3017.42 1471.39 3019.31 1467.78 3023.18 1464.67 3027.06 1461.55 3031.82 1460.05 3037.48 1460.05 3043.34 1460.05 3048.01 1461.55 3051.38 1464.47 3054.76 1467.48 3056.45 1471.59 3056.54 1476.81L3056.54 1501.9C3056.54 1507.12 3057.04 1510.93 3058.13 1513.44L3058.13 1514.05 3051.98 1514.05ZM3033.71 1509.83C3037.58 1509.83 3041.05 1508.93 3044.13 1507.02 3047.21 1505.11 3049.4 1502.6 3050.79 1499.39L3050.79 1487.75 3040.36 1487.75C3034.6 1487.75 3030.13 1488.85 3026.86 1490.96 3023.58 1492.97 3021.89 1495.88 3021.89 1499.49 3021.89 1502.5 3022.98 1504.91 3025.17 1506.92 3027.35 1508.83 3030.23 1509.83 3033.71 1509.83Z" fill="#008F11" fill-rule="evenodd"/><path d="M3092.22 1510.03C3096.43 1510.03 3099.91 1508.93 3102.78 1506.62 3105.55 1504.31 3107.09 1501.3 3107.3 1497.69L3113.14 1497.69C3112.94 1500.9 3111.91 1503.91 3109.96 1506.52 3108.12 1509.23 3105.55 1511.24 3102.37 1512.74 3099.3 1514.25 3095.91 1515.05 3092.22 1515.05 3085.14 1515.05 3079.5 1512.64 3075.4 1507.72 3071.19 1502.91 3069.14 1496.48 3069.14 1488.25L3069.14 1486.55C3069.14 1481.33 3070.07 1476.61 3071.91 1472.59 3073.76 1468.58 3076.53 1465.47 3080.02 1463.36 3083.5 1461.15 3087.5 1460.05 3092.22 1460.05 3098.17 1460.05 3103.09 1461.76 3106.89 1465.27 3110.78 1468.68 3112.84 1473.3 3113.14 1478.92L3107.3 1478.92C3107.09 1474.8 3105.55 1471.39 3102.78 1468.88 3100.02 1466.27 3096.43 1465.07 3092.22 1465.07 3086.78 1465.07 3082.58 1466.97 3079.6 1470.79 3076.63 1474.6 3075.09 1479.92 3075.09 1486.85L3075.09 1488.55C3075.09 1495.28 3076.63 1500.6 3079.6 1504.41 3082.58 1508.22 3086.78 1510.03 3092.22 1510.03Z" fill="#008F11" fill-rule="evenodd"/><path d="M3130.96 1469.56C3132.86 1466.32 3135.37 1463.89 3138.38 1462.17 3141.39 1460.44 3144.69 1459.53 3148.2 1459.53 3153.92 1459.53 3158.13 1461.15 3160.93 1464.4 3163.64 1467.64 3165.05 1472.5 3165.15 1478.89L3165.15 1514.05 3159.33 1514.05 3159.33 1478.89C3159.23 1474.12 3158.23 1470.48 3156.22 1468.14 3154.32 1465.81 3151.11 1464.7 3146.8 1464.7 3143.19 1464.7 3139.98 1465.81 3137.18 1468.14 3134.37 1470.37 3132.36 1473.52 3130.96 1477.37L3130.96 1514.05 3125.15 1514.05 3125.15 1438.05 3130.96 1438.05 3130.96 1469.56Z" fill="#008F11" fill-rule="evenodd"/><path d="M3187.05 1514.05 3181.15 1514.05 3181.15 1460.59 3187.05 1460.59 3187.05 1514.05ZM3180.15 1445.1C3180.15 1443.99 3180.45 1442.97 3181.15 1442.26 3181.95 1441.45 3182.85 1441.05 3184.15 1441.05 3185.35 1441.05 3186.35 1441.45 3187.05 1442.26 3187.85 1442.97 3188.15 1443.99 3188.15 1445.1 3188.15 1446.21 3187.85 1447.12 3187.05 1447.93 3186.35 1448.64 3185.35 1449.05 3184.15 1449.05 3182.85 1449.05 3181.95 1448.64 3181.15 1447.93 3180.45 1447.12 3180.15 1446.21 3180.15 1445.1Z" fill="#008F11" fill-rule="evenodd"/><path d="M3208.77 1461.05 3208.97 1470.09C3210.97 1466.77 3213.38 1464.37 3216.39 1462.66 3219.39 1460.85 3222.6 1460.05 3226.21 1460.05 3231.93 1460.05 3236.14 1461.66 3238.94 1464.87 3241.65 1468.08 3243.05 1472.9 3243.15 1479.22L3243.15 1514.05 3237.34 1514.05 3237.34 1479.22C3237.24 1474.5 3236.24 1470.89 3234.23 1468.58 3232.33 1466.27 3229.12 1465.17 3224.81 1465.17 3221.2 1465.17 3217.99 1466.27 3215.18 1468.58 3212.38 1470.79 3210.37 1473.9 3208.97 1477.71L3208.97 1514.05 3203.15 1514.05 3203.15 1461.05 3208.77 1461.05Z" fill="#008F11" fill-rule="evenodd"/><path d="M3279.13 1515.05C3274.58 1515.05 3270.43 1513.95 3266.79 1511.74 3263.15 1509.43 3260.22 1506.42 3258.2 1502.4 3256.17 1498.39 3255.16 1493.97 3255.16 1489.05L3255.16 1486.95C3255.16 1481.83 3256.17 1477.21 3258.09 1473.2 3260.12 1469.08 3262.95 1465.87 3266.49 1463.56 3270.03 1461.25 3273.87 1460.05 3278.02 1460.05 3284.49 1460.05 3289.65 1462.26 3293.5 1466.67 3297.24 1470.99 3299.16 1477.01 3299.16 1484.64L3299.16 1487.95 3261.03 1487.95 3261.03 1489.05C3261.03 1495.08 3262.75 1500.09 3266.29 1504.11 3269.73 1508.12 3274.08 1510.03 3279.34 1510.03 3282.47 1510.03 3285.3 1509.53 3287.73 1508.32 3290.16 1507.22 3292.38 1505.41 3294.31 1502.91L3298.05 1505.72C3293.7 1511.94 3287.33 1515.05 3279.13 1515.05ZM3278.02 1465.07C3273.57 1465.07 3269.83 1466.67 3266.79 1469.89 3263.76 1473.1 3261.94 1477.51 3261.23 1482.93L3293.29 1482.93 3293.29 1482.33C3293.09 1477.21 3291.68 1473 3288.84 1469.89 3286.11 1466.67 3282.47 1465.07 3278.02 1465.07Z" fill="#008F11" fill-rule="evenodd"/><path d="M3336.17 1438.05 3342.17 1438.05 3342.17 1514.05 3336.17 1514.05Z" fill="#008F11" fill-rule="evenodd"/><path d="M3379.14 1515.05C3374.59 1515.05 3370.44 1513.95 3366.8 1511.74 3363.16 1509.43 3360.23 1506.42 3358.21 1502.4 3356.18 1498.39 3355.17 1493.97 3355.17 1489.05L3355.17 1486.95C3355.17 1481.83 3356.18 1477.21 3358.1 1473.2 3360.13 1469.08 3362.96 1465.87 3366.5 1463.56 3370.04 1461.25 3373.88 1460.05 3378.03 1460.05 3384.5 1460.05 3389.66 1462.26 3393.51 1466.67 3397.25 1470.99 3399.17 1477.01 3399.17 1484.64L3399.17 1487.95 3361.04 1487.95 3361.04 1489.05C3361.04 1495.08 3362.76 1500.09 3366.3 1504.11 3369.74 1508.12 3374.09 1510.03 3379.35 1510.03 3382.48 1510.03 3385.31 1509.53 3387.74 1508.32 3390.17 1507.22 3392.39 1505.41 3394.32 1502.91L3398.06 1505.72C3393.71 1511.94 3387.34 1515.05 3379.14 1515.05ZM3378.03 1465.07C3373.58 1465.07 3369.84 1466.67 3366.8 1469.89 3363.77 1473.1 3361.95 1477.51 3361.24 1482.93L3393.3 1482.93 3393.3 1482.33C3393.1 1477.21 3391.69 1473 3388.85 1469.89 3386.12 1466.67 3382.48 1465.07 3378.03 1465.07Z" fill="#008F11" fill-rule="evenodd"/><path d="M3443.88 1514.05C3443.27 1512.34 3442.86 1509.93 3442.66 1506.62 3440.62 1509.33 3437.98 1511.44 3434.73 1512.84 3431.47 1514.35 3428.12 1515.05 3424.46 1515.05 3419.27 1515.05 3415.11 1513.64 3411.96 1510.73 3408.8 1507.92 3407.18 1504.31 3407.18 1499.99 3407.18 1494.78 3409.31 1490.76 3413.68 1487.75 3418.05 1484.74 3424.05 1483.23 3431.88 1483.23L3442.66 1483.23 3442.66 1477.21C3442.66 1473.4 3441.44 1470.39 3439.1 1468.28 3436.76 1466.07 3433.3 1464.97 3428.73 1464.97 3424.66 1464.97 3421.21 1466.07 3418.46 1468.08 3415.72 1470.19 3414.4 1472.7 3414.4 1475.71L3408.5 1475.61C3408.5 1471.39 3410.43 1467.78 3414.4 1464.67 3418.36 1461.55 3423.24 1460.05 3429.03 1460.05 3435.03 1460.05 3439.81 1461.55 3443.27 1464.47 3446.72 1467.48 3448.45 1471.59 3448.55 1476.81L3448.55 1501.9C3448.55 1507.12 3449.06 1510.93 3450.18 1513.44L3450.18 1514.05 3443.88 1514.05ZM3425.17 1509.83C3429.14 1509.83 3432.69 1508.93 3435.84 1507.02 3439 1505.11 3441.23 1502.6 3442.66 1499.39L3442.66 1487.75 3431.98 1487.75C3426.09 1487.75 3421.51 1488.85 3418.16 1490.96 3414.8 1492.97 3413.07 1495.88 3413.07 1499.49 3413.07 1502.5 3414.19 1504.91 3416.43 1506.92 3418.66 1508.83 3421.61 1509.83 3425.17 1509.83Z" fill="#008F11" fill-rule="evenodd"/><path d="M3488.98 1465.97C3487.76 1465.77 3486.44 1465.67 3485.02 1465.67 3481.26 1465.67 3478.11 1466.67 3475.56 1468.78 3473.02 1470.79 3471.19 1473.7 3470.08 1477.61L3470.08 1514.05 3464.18 1514.05 3464.18 1461.05 3469.98 1461.05 3470.08 1469.48C3473.23 1463.16 3478.31 1460.05 3485.22 1460.05 3486.85 1460.05 3488.17 1460.25 3489.18 1460.65L3488.98 1465.97Z" fill="#008F11" fill-rule="evenodd"/><path d="M3503.94 1461.05 3504.15 1470.09C3506.2 1466.77 3508.67 1464.37 3511.75 1462.66 3514.84 1460.85 3518.12 1460.05 3521.82 1460.05 3527.68 1460.05 3532 1461.66 3534.87 1464.87 3537.65 1468.08 3539.09 1472.9 3539.19 1479.22L3539.19 1514.05 3533.23 1514.05 3533.23 1479.22C3533.13 1474.5 3532.1 1470.89 3530.04 1468.58 3528.09 1466.27 3524.8 1465.17 3520.38 1465.17 3516.69 1465.17 3513.4 1466.27 3510.52 1468.58 3507.64 1470.79 3505.59 1473.9 3504.15 1477.71L3504.15 1514.05 3498.19 1514.05 3498.19 1461.05 3503.94 1461.05Z" fill="#008F11" fill-rule="evenodd"/><path d="M3560.97 1514.05 3554.34 1514.05 3554.34 1460.59 3560.97 1460.59 3560.97 1514.05ZM3553.21 1445.1C3553.21 1443.99 3553.55 1442.97 3554.34 1442.26 3555.24 1441.45 3556.25 1441.05 3557.71 1441.05 3559.06 1441.05 3560.19 1441.45 3560.97 1442.26 3561.87 1442.97 3562.21 1443.99 3562.21 1445.1 3562.21 1446.21 3561.87 1447.12 3560.97 1447.93 3560.19 1448.64 3559.06 1449.05 3557.71 1449.05 3556.25 1449.05 3555.24 1448.64 3554.34 1447.93 3553.55 1447.12 3553.21 1446.21 3553.21 1445.1Z" fill="#008F11" fill-rule="evenodd"/><path d="M3581.95 1461.05 3582.16 1470.09C3584.21 1466.77 3586.68 1464.37 3589.76 1462.66 3592.84 1460.85 3596.13 1460.05 3599.83 1460.05 3605.69 1460.05 3610 1461.66 3612.88 1464.87 3615.66 1468.08 3617.09 1472.9 3617.2 1479.22L3617.2 1514.05 3611.24 1514.05 3611.24 1479.22C3611.13 1474.5 3610.11 1470.89 3608.05 1468.58 3606.1 1466.27 3602.81 1465.17 3598.39 1465.17 3594.69 1465.17 3591.41 1466.27 3588.53 1468.58 3585.65 1470.79 3583.6 1473.9 3582.16 1477.71L3582.16 1514.05 3576.2 1514.05 3576.2 1461.05 3581.95 1461.05Z" fill="#008F11" fill-rule="evenodd"/><path d="M3630.2 1487.02C3630.2 1478.7 3632.02 1472.18 3635.75 1467.27 3639.39 1462.46 3644.43 1460.05 3650.79 1460.05 3658.06 1460.05 3663.51 1462.96 3667.35 1468.67L3667.65 1461.05 3673.2 1461.05 3673.2 1512.89C3673.2 1519.71 3671.18 1525.12 3667.35 1529.13 3663.51 1533.15 3658.36 1535.05 3651.8 1535.05 3648.07 1535.05 3644.53 1534.25 3641.1 1532.64 3637.77 1530.94 3635.15 1528.73 3633.23 1526.03L3636.46 1522.52C3640.7 1527.63 3645.64 1530.14 3651.4 1530.14 3656.34 1530.14 3660.18 1528.73 3662.9 1525.83 3665.63 1522.92 3667.04 1518.91 3667.14 1513.79L3667.14 1507.18C3663.41 1512.39 3657.86 1515 3650.69 1515 3644.53 1515 3639.59 1512.49 3635.75 1507.68 3632.02 1502.76 3630.2 1496.15 3630.2 1487.82L3630.2 1487.02ZM3636.16 1488.03C3636.16 1494.84 3637.47 1500.16 3640.19 1504.07 3642.92 1507.98 3646.75 1509.88 3651.8 1509.88 3659.07 1509.88 3664.12 1506.67 3667.14 1500.16L3667.14 1475.59C3665.83 1472.18 3663.81 1469.58 3661.19 1467.77 3658.66 1466.07 3655.54 1465.16 3651.9 1465.16 3646.85 1465.16 3643.02 1467.07 3640.29 1470.98 3637.47 1474.79 3636.16 1480.5 3636.16 1488.03Z" fill="#008F11" fill-rule="evenodd"/></g></svg>