<?xml version="1.0" encoding="UTF-8" standalone="no"?>
<!DOCTYPE svg PUBLIC "-//W3C//DTD SVG 1.1//EN" "http://www.w3.org/Graphics/SVG/1.1/DTD/svg11.dtd">
<svg width="100%" height="100%" viewBox="0 0 100 100" version="1.1" xmlns="http://www.w3.org/2000/svg" xmlns:xlink="http://www.w3.org/1999/xlink" xml:space="preserve" xmlns:serif="http://www.serif.com/" style="fill-rule:evenodd;clip-rule:evenodd;stroke-linejoin:round;stroke-miterlimit:2;">
    <g transform="matrix(1,0,0,1,-4704.42,-1511.82)">
        <g transform="matrix(1,0,0,1,-0.966076,-0.0406276)">
            <g transform="matrix(0.579403,0,0,0.579403,1980.32,637.648)">
                <g transform="matrix(219.001,0,0,219.001,4691.68,1677.02)">
                    <path d="M0.053,-0.38C0.053,-0.486 0.092,-0.578 0.169,-0.654C0.247,-0.73 0.34,-0.768 0.449,-0.768C0.556,-0.768 0.648,-0.73 0.725,-0.653C0.802,-0.576 0.841,-0.484 0.841,-0.376C0.841,-0.268 0.802,-0.176 0.725,-0.1C0.647,-0.024 0.553,0.014 0.443,0.014C0.346,0.014 0.258,-0.02 0.181,-0.087C0.095,-0.162 0.053,-0.26 0.053,-0.38ZM0.167,-0.379C0.167,-0.296 0.195,-0.227 0.251,-0.173C0.307,-0.12 0.371,-0.093 0.444,-0.093C0.523,-0.093 0.59,-0.12 0.645,-0.175C0.699,-0.23 0.726,-0.298 0.726,-0.377C0.726,-0.457 0.699,-0.525 0.646,-0.579C0.592,-0.634 0.526,-0.661 0.447,-0.661C0.369,-0.661 0.303,-0.634 0.249,-0.579C0.194,-0.525 0.167,-0.458 0.167,-0.379Z" style="fill:white;fill-rule:nonzero;"/>
                </g>
                <g transform="matrix(0.741747,0,0,0.741747,4121.46,927.092)">
                    <path d="M907.682,878.084C911.849,869.647 922.284,863.659 934.483,863.659C950.345,863.659 963.223,873.782 963.223,886.251C963.223,898.719 950.345,908.842 934.483,908.842C918.621,908.842 905.743,898.719 905.743,886.251C905.743,884.819 905.913,883.419 906.237,882.063C904.539,881.512 902.644,881.19 900.662,881.19C898.68,881.19 896.786,881.512 895.087,882.063C895.412,883.419 895.581,884.819 895.581,886.251C895.581,898.719 882.703,908.842 866.841,908.842C850.979,908.842 838.102,898.719 838.102,886.251C838.102,873.782 850.979,863.659 866.841,863.659C879.041,863.659 889.475,869.647 893.643,878.084C895.611,876.855 898.038,876.13 900.662,876.13C903.287,876.13 905.714,876.855 907.682,878.084Z" style="fill:white;"/>
                </g>
            </g>
        </g>
    </g>
</svg>
